/* XPM */
static char * kde2_9x19_xpm[] = {
"135 133 82 1",
" 	c None",
".	c #FFFFFF",
"+	c #6E6E6E",
"@	c #969696",
"#	c #7EA9E4",
"$	c #EAEAEA",
"%	c #CDCDCD",
"&	c #D8D8D8",
"*	c #D9D9D9",
"=	c #DFDFDF",
"-	c #D3D3D3",
";	c #E1E1E1",
">	c #DDDDDD",
",	c #E2E2E2",
"'	c #E8E8E8",
")	c #DBDBDB",
"!	c #E3E3E3",
"~	c #E7E7E7",
"{	c #CFCFCF",
"]	c #B7B7B7",
"^	c #E4E4E4",
"/	c #DADADA",
"(	c #DEDEDE",
"_	c #E5E5E5",
":	c #E9E9E9",
"<	c #000000",
"[	c #D5D5D5",
"}	c #D0D0D0",
"|	c #D7D7D7",
"1	c #D2D2D2",
"2	c #E0E0E0",
"3	c #D4D4D4",
"4	c #CECECE",
"5	c #CCCCCC",
"6	c #C9C9C9",
"7	c #C3C3C3",
"8	c #D6D6D6",
"9	c #C6C6C6",
"0	c #BEBEBE",
"a	c #B9B9B9",
"b	c #C0C0C0",
"c	c #BDBDBD",
"d	c #BABABA",
"e	c #C8C8C8",
"f	c #B8B8B8",
"g	c #B0B0B0",
"h	c #465D7E",
"i	c #D1D1D1",
"j	c #CBCBCB",
"k	c #808080",
"l	c #ECECEC",
"m	c #C7C7C7",
"n	c #EEEEEE",
"o	c #E6E6E6",
"p	c #DCDCDC",
"q	c #CACACA",
"r	c #C4C4C4",
"s	c #C5C5C5",
"t	c #C2C2C2",
"u	c #BFBFBF",
"v	c #BBBBBB",
"w	c #C1C1C1",
"x	c #BCBCBC",
"y	c #B4B4B4",
"z	c #6789BA",
"A	c #6586B6",
"B	c #6384B3",
"C	c #6181AF",
"D	c #384B65",
"E	c #5F7EAC",
"F	c #5D7CA8",
"G	c #5B79A5",
"H	c #5977A1",
"I	c #57749E",
"J	c #55719A",
"K	c #536F96",
"L	c #516C93",
"M	c #4F6A8F",
"N	c #4D678C",
"O	c #4B6488",
"P	c #496285",
"Q	c #475F81",
"         ...................................................................................................+@@@@@@@.+@@@@@@@#+@@@@@@@#",
"         $$$$$$$$$%&*=-;*>,>%,'=)%!;%&*=-;*>,>%,'=)%!;%&*=-;*>,>%,'=)%!;%&*=-;*>,>%,'=)%!;%&*=-;*>,>%,'=)%!;+@@@@@@@.+@@@@@@@#+@@@@@@@#",
"         ~$$$~$$$~{]]]]]]]]]]]]]]].){]]]]]]]]]]]]]]].){]]]]]]]]]]]]]]].){]]]]]]]]]]]]]]].){]]]]]]]]]]]]]]].)+@@@@@@@.+@@@@@@@#+@@@@@@@#",
"         ^~~~^~~~^)]++++++++++++++.,)]++++++++++++++.,)]++++++++++++++.,)]++++++++++++++.,)]++++++++++++++.,+@@@@@@@.+@@@@@@@#+@@@@@@@#",
"         ;^^^;^^^;/]+...........]+.~/]+...........]+.~/]+...........]+.~/]+...........]+.~/]+...........]+.~+@@@@@@@.+@@@@@@@#+@@@@@@@#",
"         (;;;(;;;(_]+.::::::::::]+.%_]+.::::::::::]+.%_]+.::::::::::]+.%_]+.::::::::::]+.%_]+.::::::::::]+.%+@@@@@@@.+@@@@@@@#+@@@@@@@#",
"         )((()((()/]+.^^<^^^^<^^]+.&/]+.^^^^<^^^^^]+.&/]+.^<<<<<<<<^]+.&/]+.^^^^^^^^^^]+.&/]+.^^^^^^^^^^]+.&+@@@@@@@.+@@@@@@@#+@@@@@@@#",
"         &)))&)))&^]+.(<<<((<<<(]+.)^]+.((((<(((((]+.)^]+.(<<<<<<<<(]+.)^]+.((((((((((]+.)^]+.((((((((((]+.)+@@@@@@@.+@@@@@@@#+@@@@@@@#",
"         [&&&[&&&[}]+.**<<<<<<**]+.|}]+.***<<<****]+.|}]+.*<<****<<*]+.|}]+.***<<<<***]+.|}]+.**********]+.|+@@@@@@@.+@@@@@@@#+@@@@@@@#",
"         1[[[1[[[12]+.333<<<<333]+.-2]+.333<<<3333]+.-2]+.3<<3333<<3]+.-2]+.333<<<<333]+.-2]+.3333333333]+.-+@@@@@@@.+@@@@@@@#+@@@@@@@#",
"         {111{111{>]+.444<<<<444]+.)>]+.44<<<<<444]+.)>]+.4<<4444<<4]+.)>]+.444<<<<444]+.)>]+.4444444444]+.)+@@@@@@@.+@@@@@@@#+@@@@@@@#",
"         5{{{5{{{5%]+.66<<<<<<66]+.>%]+.66<<<<<666]+.>%]+.6<<6666<<6]+.>%]+.666<<<<666]+.>%]+.6666666666]+.>+@@@@@@@.+@@@@@@@#+@@@@@@@#",
"         6555655563]+.7<<<77<<<7]+.83]+.7<<<<<<<77]+.83]+.7<<<<<<<<7]+.83]+.7777777777]+.83]+.7777777777]+.8+@@@@@@@.+@@@@@@@#+@@@@@@@#",
"         966696669!]+.00<0000<00]+.[!]+.0<<<<<<<00]+.[!]+.0<<<<<<<<0]+.[!]+.0000000000]+.[!]+.0000000000]+.[+@@@@@@@.+@@@@@@@#+@@@@@@@#",
"         7999799973]+.aaaaaaaaaa]+.)3]+.aaaaaaaaaa]+.)3]+.aaaaaaaaaa]+.)3]+.aaaaaaaaaa]+.)3]+.aaaaaaaaaa]+.)+@@@@@@@.+@@@@@@@#+@@@@@@@#",
"         b777b777b{]+]]]]]]]]]]]]+.{{]+]]]]]]]]]]]]+.{{]+]]]]]]]]]]]]+.{{]+]]]]]]]]]]]]+.{{]+]]]]]]]]]]]]+.{+@@@@@@@.+@@@@@@@#+@@@@@@@#",
"         cbbbcbbbc*]++++++++++++++.8*]++++++++++++++.8*]++++++++++++++.8*]++++++++++++++.8*]++++++++++++++.8+@@@@@@@.+@@@@@@@#+@@@@@@@#",
"         dcccdcccd)................;)................;)................;)................;)................;+@@@@@@@.+@@@@@@@#+@@@@@@@#",
"         ++++++++++++++++++++++++++++++++++++++++++++++++++++++++++++++++++++++++++++++++++++++++++++++++++++@@@@@@@.+@@@@@@@#+@@@@@@@#",
"<<<<<<<<<<<<<<<<<<...........................................................................................2&}ebfg+.2&}ebfgh+2&}ebfg#",
"<<<<<<<<<<<<<<<<<<^>=-2{i&[|=)>{%&*=%&*=-;*>,>%,'=)%!;%&*=-;*>,>%,'=)%!;%&*=-;*>,>%,'=)%!;%&*=-;*>,>%,'=)%!;.2&}ebfg+.2&}ebfgh+2&}ebfg#",
"<<<<<<<<<<<<<<<<<<)]]]]]]]]]]]]]]].%{]]]]]]]]]]]]]]].){]]]]]]]]]]]]]]].){]]]]]]]]]]]]]]].){]]]]]]]]]]]]]]].).2&}ebfg+.2&}ebfgh+2&}ebfg#",
"<<<<<<<<<<<<<<<<<<*]++++++++++++++.>)]++++++++++++++.,)]++++++++++++++.,)]++++++++++++++.,)]++++++++++++++.,.2&}ebfg+.2&}ebfgh+2&}ebfg#",
"<<<<<<<<<<<<<<<<<<{]+]]]]]]]]]]].+.^/]+]]]]]]]]]]].+.~/]+]]]]]]]]]]].+.~/]+]]]]]]]]]]].+.~/]+]]]]]]]]]]].+.~.2&}ebfg+.2&}ebfgh+2&}ebfg#",
"<<<<<<<<<<<<<<<<<<,]+]0000000000.+.&_]+]0000000000.+.%_]+]0000000000.+.%_]+]0000000000.+.%_]+]0000000000.+.%.2&}ebfg+.2&}ebfgh+2&}ebfg#",
"<<<<<<<<<<<<<<<<<<1]+]7777777777.+.&/]+]7777777777.+.&/]+]7777777777.+.&/]+]7777777777.+.&/]+]7777777777.+.&.2&}ebfg+.2&}ebfgh+2&}ebfg#",
"<<<<<<<<<<<<<<<<<<j]+]666k6666k6.+.[^]+]66666k6666.+.)^]+]66kkkkkkkk.+.)^]+]6666666666.+.)^]+]6666666666.+.).2&}ebfg+.2&}ebfgh+2&}ebfg#",
"<<<<<<<<<<<<<<<<<<^]+]44kkk44kkk.+.i}]+]44444k4444.+.|}]+]44kkkkkkkk.+.|}]+]4444444444.+.|}]+]4444444444.+.|.2&}ebfg+.2&}ebfgh+2&}ebfg#",
"<<<<<<<<<<<<<<<<<<l]+]333kkkkkk3.+.[2]+]3333kkk333.+.-2]+]33kk3333kk.+.-2]+]3333kkkk33.+.-2]+]3333333333.+.-.2&}ebfg+.2&}ebfgh+2&}ebfg#",
"<<<<<<<<<<<<<<<<<<~]+]****kkkk**.+.=>]+]****kkk***.+.)>]+]**kk****kk.+.)>]+]****kkkk**.+.)>]+]**********.+.).2&}ebfg+.2&}ebfgh+2&}ebfg#",
"<<<<<<<<<<<<<<<<<<6]+]((((kkkk((.+.-%]+](((kkkkk((.+.>%]+]((kk((((kk.+.>%]+]((((kkkk((.+.>%]+]((((((((((.+.>.2&}ebfg+.2&}ebfgh+2&}ebfg#",
"<<<<<<<<<<<<<<<<<<m]+]^^^kkkkkk^.+.j3]+]^^^kkkkk^^.+.83]+]^^kk^^^^kk.+.83]+]^^^^kkkk^^.+.83]+]^^^^^^^^^^.+.8.2&}ebfg+.2&}ebfgh+2&}ebfg#",
"<<<<<<<<<<<<<<<<<<,]+]::kkk::kkk.+.j!]+]::kkkkkkk:.+.[!]+]::kkkkkkkk.+.[!]+]::::::::::.+.[!]+]::::::::::.+.[.2&}ebfg+.2&}ebfgh+2&}ebfg#",
"<<<<<<<<<<<<<<<<<<m]+]nnnknnnnkn.+.>3]+]nnkkkkkkkn.+.)3]+]nnkkkkkkkk.+.)3]+]nnnnnnnnnn.+.)3]+]nnnnnnnnnn.+.).2&}ebfg+.2&}ebfgh+2&}ebfg#",
"<<<<<<<<<<<<<<<<<<)]+............+.-{]+............+.{{]+............+.{{]+............+.{{]+............+.{.2&}ebfg+.2&}ebfgh+2&}ebfg#",
"<<<<<<<<<<<<<<<<<<&]++++++++++++++.**]++++++++++++++.8*]++++++++++++++.8*]++++++++++++++.8*]++++++++++++++.8.2&}ebfg+.2&}ebfgh+2&}ebfg#",
"<<<<<<<<<<<<<<<<<<^................&)................;)................;)................;)................;.2&}ebfg+.2&}ebfgh+2&}ebfg#",
"<<<<<<<<<<<<<<<<<<++++++++++++++++++++++++++++++++++++++++++++++++++++++++++++++++++++++++++++++++++++++++++.2&}ebfg+.2&}ebfgh+2&}ebfg#",
"++++++++++++++..............................................................................................+@@@@@@@.+@@@@@@@#+@@@@@@@#",
"+...........]+.]]+%&*=-;*>,>%,'=)%!;%&*=-;*>,>%,'=)%!;%&*=-;*>,>%,'=)%!;%&*=-;*>,>%,'=)%!;%&*=-;*>,>%,'=)%!;+@@@@@@@.+@@@@@@@#+@@@@@@@#",
"+.::::::::::]+.]]+{]]]]]]]]]]]]]]].){]]]]]]]]]]]]]]].){]]]]]]]]]]]]]]].){]]]]]]]]]]]]]]].){]]]]]]]]]]]]]]].)+@@@@@@@.+@@@@@@@#+@@@@@@@#",
"+.^<<<<^^^^^]+.]]+)]++++++++++++++.,)]++++++++++++++.,)]++++++++++++++.,)]++++++++++++++.,)]++++++++++++++.,+@@@@@@@.+@@@@@@@#+@@@@@@@#",
"+.(<<<((((((]+.]]+/]+...........]+.~/]+...........]+.~/]+...........]+.~/]+...........]+.~/]+...........]+.~+@@@@@@@.+@@@@@@@#+@@@@@@@#",
"+.*<<<<*****]+.]]+_]+.::::::::::]+.%_]+.::::::::::]+.%_]+.::::::::::]+.%_]+.::::::::::]+.%_]+.::::::::::]+.%.......(+.......(h+++++++(#",
"+.3<3<<<3333]+.]]+/]+.^^^^^^^^^^]+.&/]+.^^^^^^^^^^]+.&/]+.^^^^^^^^^^]+.&/]+.^^^^^^^^^^]+.&/]+.^^^^^^^^^^]+.&.~o^!;=(+.~o^!;=(h+~o^!;=(#",
"+.4444<<<4<4]+.]]+^]+.((((((((((]+.)^]+.((((((((((]+.)^]+.((((((((((]+.)^]+.((((((((((]+.)^]+.((((((((((]+.).^!;=(p/+.^!;=(p/h+^!;=(p/#",
"+.66666<<<<6]+.]]+}]+.**********]+.|}]+.**********]+.|}]+.**********]+.|}]+.**********]+.|}]+.**********]+.|.;=(p/*|+.;=(p/*|h+;=(p/*|#",
"+.777777<<<7]+.]]+2]+.3333333333]+.-2]+.3333333333]+.-2]+.3333333333]+.-2]+.3333333333]+.-2]+.3333333333]+.-.(p<*|83+.(p<*|83h+(p/*|83#",
"+.00000<<<<0]+.]]+>]+.4444444444]+.)>]+.4444444444]+.)>]+.4444444444]+.)>]+.4444444444]+.)>]+.4444444444]+.)./*<<31i+./*<<31ih+/*|k31i#",
"+.aaaaaaaaaa]+.]]+%]+.6666666666]+.>%]+.6666666666]+.>%]+.6666666666]+.>%]+.6666666666]+.>%]+.6666666666]+.>.|<<<i{%+.|<<<i{%h+|83kk{%#",
"+]]]]]]]]]]]]+.]]+3]+.7777777777]+.83]+.7777777777]+.83]+.7777777777]+.83]+.7777777777]+.83]+.7777777777]+.8.3<<<<5q+.3<<<<5qh+31kkk5q#",
"++++++++++++++.]]+!]+.0000000000]+.[!]+.0000000000]+.[!]+.0000000000]+.[!]+.0000000000]+.[!]+.0000000000]+.[.<<<<<em+.<<<<<emh+i{kkkkm#",
"...............]]+3]+.aaaaaaaaaa]+.)3]+.aaaaaaaaaa]+.)3]+.aaaaaaaaaa]+.)3]+.aaaaaaaaaa]+.)3]+.aaaaaaaaaa]+.).<<<<<<r+.<<<<<<rh+%kkkkkr#",
".]]]]]]]]]]]]]]]]+{]+]]]]]]]]]]]]+.{{]+]]]]]]]]]]]]+.{{]+]]]]]]]]]]]]+.{{]+]]]]]]]]]]]]+.{{]+]]]]]]]]]]]]+.{.qemsrtb+.qemsrtbh+qkkkkkk#",
".]]]]]]]]]]]]]]]]+*]++++++++++++++.8*]++++++++++++++.8*]++++++++++++++.8*]++++++++++++++.8*]++++++++++++++.8.msrtbuc+.msrtbuch+msrtbuc#",
".]]]]]]]]]]]]]]]]+)................;)................;)................;)................;)................;rrtbucvd+rrtbucvdhrrtbucvd#",
"++++++++++++++++++++++++++++++++++++++++++++++++++++++++++++++++++++++++++++++++++++++++++++++++++++++++++++.++++++++++++++++h........#",
"++++++++++++++.....................................................................................................(+.......(h++++++++#",
"+]]]]]]]]]]].+.]]+%&*=-;*>,>%,'=)%!;%&*=-;*>,>%,'=)%!;%&*=-;*>,>%,'=)%!;%&*=-;*>,>%,'=)%!;%&*=-;*>,>%,'=)%!;.~o^!;=(+.~o^!;=(h+~o^!;=(#",
"+]0000000000.+.]]+{]]]]]]]]]]]]]]].){]]]]]]]]]]]]]]].){]]]]]]]]]]]]]]].){]]]]]]]]]]]]]]].){]]]]]]]]]]]]]]].).^!;=(p/+.^!;=(p/h+^!;=(p/#",
"+]7777777777.+.]]+)]++++++++++++++.,)]++++++++++++++.,)]++++++++++++++.,)]++++++++++++++.,)]++++++++++++++.,.;=(p/*|+.;=(p/*|h+;=(p/*|#",
"+]66kkkk6666.+.]]+/]+]]]]]]]]]]].+.~/]+]]]]]]]]]]].+.~/]+]]]]]]]]]]].+.~/]+]]]]]]]]]]].+.~/]+]]]]]]]]]]].+.~.<<<<<<3+.<<<<<<3h+(p/*|83#",
"+]44kkk44444.+.]]+_]+]0000000000.+.%_]+]0000000000.+.%_]+]0000000000.+.%_]+]0000000000.+.%_]+]0000000000.+.%.<<<<<1i+.<<<<<1ih+/kkkkkk#",
"+]33kkkk3333.+.]]+/]+]7777777777.+.&/]+]7777777777.+.&/]+]7777777777.+.&/]+]7777777777.+.&/]+]7777777777.+.&.|<<<<{%+.|<<<<{%h+|kkkkk%#",
"+]**k*kkk***.+.]]+^]+]6666666666.+.)^]+]6666666666.+.)^]+]6666666666.+.)^]+]6666666666.+.)^]+]6666666666.+.).3<<<%5q+.3<<<%5qh+31kkkkq#",
"+](((((kkk(k.+.]]+}]+]4444444444.+.|}]+]4444444444.+.|}]+]4444444444.+.|}]+]4444444444.+.|}]+]4444444444.+.|.i{<<qem+.i{<<qemh+i{kkkem#",
"+]^^^^^^kkkk.+.]]+2]+]3333333333.+.-2]+]3333333333.+.-2]+]3333333333.+.-2]+]3333333333.+.-2]+]3333333333.+.-.%5<emsr+.%5<emsrh+%5qkksr#",
"+]:::::::kkk.+.]]+>]+]**********.+.)>]+]**********.+.)>]+]**********.+.)>]+]**********.+.)>]+]**********.+.).qemsrtb+.qemsrtbh+qemkrtb#",
"+]nnnnnnkkkk.+.]]+%]+]((((((((((.+.>%]+]((((((((((.+.>%]+]((((((((((.+.>%]+]((((((((((.+.>%]+]((((((((((.+.>.msrtbuc+.msrtbuch+msrtbuc#",
"+............+.]]+3]+]^^^^^^^^^^.+.83]+]^^^^^^^^^^.+.83]+]^^^^^^^^^^.+.83]+]^^^^^^^^^^.+.83]+]^^^^^^^^^^.+.8rrtbucvd+rrtbucvdhrrtbucvd#",
"++++++++++++++.]]+!]+]::::::::::.+.[!]+]::::::::::.+.[!]+]::::::::::.+.[!]+]::::::::::.+.[!]+]::::::::::.+.[+++++++++++++++++h........#",
"...............]]+3]+]nnnnnnnnnn.+.)3]+]nnnnnnnnnn.+.)3]+]nnnnnnnnnn.+.)3]+]nnnnnnnnnn.+.)3]+]nnnnnnnnnn.+.)+@@@@@@@.+@@@@@@@#+@@@@@@@#",
".]]]]]]]]]]]]]]]]+{]+............+.{{]+............+.{{]+............+.{{]+............+.{{]+............+.{+@@@@@@@.+@@@@@@@#+@@@@@@@#",
".]]]]]]]]]]]]]]]]+*]++++++++++++++.8*]++++++++++++++.8*]++++++++++++++.8*]++++++++++++++.8*]++++++++++++++.8+@@@@@@@.+@@@@@@@#+@@@@@@@#",
".]]]]]]]]]]]]]]]]+)................;)................;)................;)................;)................;+@@@@@@@.+@@@@@@@#+@@@@@@@#",
"+++++++++++++++++++++++++++++++++++++++++++++++++++++++++++++++++++++++++++++++++++++++++++++++++++++++++++++@@@@@@@.+@@@@@@@#+@@@@@@@#",
"............................]+      .........      .]+.]+                     .]++++++++++................p+.......p+                  ",
".$$$$$$$$$$$$$$$$$$$$$$$$$+.]+      $$$$$$$$$      .]+.]+                     .]+@@@@@@@@@222222222.~o^,2(p+.~o^,2(p+                  ",
".~~$$$~$$~$$$~$$$~$$$~~$$$+.]+      ~$$$~$$$~      .]+.]+                     .]+@@@@@@@@@ppppppppp.^,2(>)*+.^,2(>)*+                  ",
".^^~~~^~~^~~~^~~~^~~~^^~~~+.]+      ^~~~^~~~^      .]+.]+                     .]+@@@@@@@@@&&&&&&&&&.;=>)*<[+.<=>)*|[+                  ",
".;;^^^;^^;^^^;^^^;^^^;;^^^+.]+      ;^^^;^^^;      .]+.]+                     .]+@@@@@@@@@333333333.>)*<<<1+.<<<&831+                  ",
".((;;;(;;(;;;(;;;(;;;((;;;+.]+      (;;;(;;;(      .]+.]+                     .]+@@@@@@@@@}}}}}}}}}./<<<<<{+.<<<<<}{+                  ",
".))((()(()((()((()((())(((+.]+      )((()((()      .]+.]+                     .]+@@@@@@@@@%%%%%%%%%.<<<<<<j+.<<<<<<j+                  ",
".&&)))&))&)))&)))&)))&&)))+.]+      &)))&)))&      .]+.]+                     .]+@@@@@@@@@eeeeeeeee.-i<<<<e+.<<<<jqe+                  ",
".[[&&&[&&[&&&[&&&[&&&[[&&&+.]+      [&&&[&&&[      .]+.]+                     .]+@@@@@@@@@sssssssss.{45q<<r+.<<5qe9r+                  ",
".11[[[1[[1[[[1[[[1[[[11[[[+.]+      1[[[1[[[1      .]+.]+                     .]+@@@@@@@@@bbbbbbbbb.5qe9s7w+.5qe9s7w+                  ",
".{{111{11{111{111{111{{111+.]+      {111{111{      .]+.]+                     .]+@@@@@@@@@ccccccccc.6ms7wuc+.6ms7wuc+                  ",
".55{{{5{{5{{{5{{{5{{{55{{{+.]+      5{{{5{{{5      .]+.]+                     .]+@@@@@@@@@fffffffff.s7wb0xd+.s7wb0xd+                  ",
".6655565565556555655566555+.]+      655565556      .]+.]+                     .]+@@@@@@@@@yyyyyyyyyttb0xdf]+ttb0xdf]+                  ",
".9966696696669666966699666+.]+      966696669      .]+.]+                     .]+@@@@@@@@@+++++++++++++++++++++++++++                  ",
".7799979979997999799977999+.]+      799979997      .]+.].......................]+....................................                  ",
".bb777b77b777b777b777bb777+.]+      b777b777b      .]+.]]]]]]]]]]]]]]]]]]]]]]]]]+]]]]]]]]]]]]]]]]]]]]]]]]]]]]]]]]]]]]                  ",
".ccbbbcbbcbbbcbbbcbbbccbbb+.]+      cbbbcbbbc      .]+.]]]]]]]]]]]]]]]]]]]]]]]]]+]]]]]]]]]]]]]]]]]]]]]]]]]]]]]]]]]]]]                  ",
".ddcccdccdcccdcccdcccddccc+.]+      dcccdcccd      .]+.]]]]]]]]]]]]]]]]]]]]]]]]]+]]]]]]]]]]]]]]]]]]]]]]]]]]]]]]]]]]]]                  ",
".]+++++++++++++++++++++++++.]+      +++++++++      .]++++++++++++++++++++++++++++++++++++++++++++++++++++++++++++++++                  ",
"############################h+      #########      #h+#h+                     #h++++++++++................p+.......p+                  ",
"#zzzzzzzzzzzzzzzzzzzzzzzzzh#h+      zzzzzzzzz      #h+#h+                     #h+@@@@@@@@@222222222.~o^,2(p+.~o^,2(p+                  ",
"#AAAAAAAAAAAAAAAAAAAAAAAAAh#h+      AAAAAAAAA      #h+#h+                     #h+@@@@@@@@@ppppppppp.^,2(>)*+.^,2(>)*+                  ",
"#BBB#BB#BB#BB#BB#BB#BB#BBBh#h+      BBBBBBBBB      #h+#h+                     #h+@@@@@@@@@&&&&&&&&&.;=>)*<[+.<=>)*|[+                  ",
"#CCCCDCCDCCDCCDCCDCCDCCDCCh#h+      CCCCCCCCC      #h+#h+                     #h+@@@@@@@@@333333333.>)*<<<1+.<<<&831+                  ",
"#EEEEEEEEEEEEEEEEEEEEEEEEEh#h+      EEEEEEEEE      #h+#h+                     #h+@@@@@@@@@}}}}}}}}}./<<<<<{+.<<<<<}{+                  ",
"#FFFFFFFFFFFFFFFFFFFFFFFFFh#h+      FFFFFFFFF      #h+#h+                     #h+@@@@@@@@@%%%%%%%%%.<<<<<<j+.<<<<<<j+                  ",
"#GGG#GG#GG#GG#GG#GG#GG#GGGh#h+      GGGGGGGGG      #h+#h+                     #h+@@@@@@@@@eeeeeeeee.-i<<<<e+.<<<<jqe+                  ",
"#HHHHDHHDHHDHHDHHDHHDHHDHHh#h+      HHHHHHHHH      #h+#h+                     #h+@@@@@@@@@sssssssss.{45q<<r+.<<5qe9r+                  ",
"#IIIIIIIIIIIIIIIIIIIIIIIIIh#h+      IIIIIIIII      #h+#h+                     #h+@@@@@@@@@bbbbbbbbb.5qe9s7w+.5qe9s7w+                  ",
"#JJJJJJJJJJJJJJJJJJJJJJJJJh#h+      JJJJJJJJJ      #h+#h+                     #h+@@@@@@@@@ccccccccc.6ms7wuc+.6ms7wuc+                  ",
"#KKK#KK#KK#KK#KK#KK#KK#KKKh#h+      KKKKKKKKK      #h+#h+                     #h+@@@@@@@@@fffffffff.s7wb0xd+.s7wb0xd+                  ",
"#LLLLDLLDLLDLLDLLDLLDLLDLLh#h+      LLLLLLLLL      #h+#h+                     #h+@@@@@@@@@yyyyyyyyyttb0xdf]+ttb0xdf]+                  ",
"#MMMMMMMMMMMMMMMMMMMMMMMMMh#h+      MMMMMMMMM      #h+#h+                     #h+@@@@@@@@@+++++++++++++++++++++++++++                  ",
"#NNNNNNNNNNNNNNNNNNNNNNNNNh#h+      NNNNNNNNN      #h+#h#######################h+####################################                  ",
"#OOO#OO#OO#OO#OO#OO#OO#OOOh#h+      OOOOOOOOO      #h+#hhhhhhhhhhhhhhhhhhhhhhhhh+hhhhhhhhhhhhhhhhhhhhhhhhhhhhhhhhhhhh                  ",
"#PPPPDPPDPPDPPDPPDPPDPPDPPh#h+      PPPPPPPPP      #h+#hhhhhhhhhhhhhhhhhhhhhhhhh+hhhhhhhhhhhhhhhhhhhhhhhhhhhhhhhhhhhh                  ",
"#QQQQQQQQQQQQQQQQQQQQQQQQQh#h+      QQQQQQQQQ      #h+#hhhhhhhhhhhhhhhhhhhhhhhhh+hhhhhhhhhhhhhhhhhhhhhhhhhhhhhhhhhhhh                  ",
"#h+++++++++++++++++++++++hh#h+      +++++++++      #h++++++++++++++++++++++++++++++++++++++++++++++++++++++++++++++++                  ",
"hhhhhhhhhhhhhhhhhhhhhhhhhhhh#+      hhhhhhhhh      h#+h#+                     h#++++++++++++++++++++++++++p.+++++++p.                  ",
"hQQQQQQQQQQQQQQQQQQQQQQQQQ#h#+      QQQQQQQQQ      h#+h#+                     h#+@@@@@@@@@222222222+~o^,2(p.+~o^,2(p.                  ",
"hPPPPPPPPPPPPPPPPPPPPPPPPP#h#+      PPPPPPPPP      h#+h#+                     h#+@@@@@@@@@ppppppppp+^,2(>)*.+^,2(>)*.                  ",
"hOOO#OO#OO#OO#OO#OO#OO#OOO#h#+      OOOOOOOOO      h#+h#+                     h#+@@@@@@@@@&&&&&&&&&+;=>)*|[.+;=>)*|[.                  ",
"hNNNNDNNDNNDNNDNNDNNDNNDNN#h#+      NNNNNNNNN      h#+h#+                     h#+@@@@@@@@@333333333+>)*&83k.+>k*&831.                  ",
"hMMMMMMMMMMMMMMMMMMMMMMMMM#h#+      MMMMMMMMM      h#+h#+                     h#+@@@@@@@@@}}}}}}}}}+/&83kkk.+/kkk1}{.                  ",
"hLLLLLLLLLLLLLLLLLLLLLLLLL#h#+      LLLLLLLLL      h#+h#+                     h#+@@@@@@@@@%%%%%%%%%+83kkkkk.+8kkkkkj.                  ",
"hKKK#KK#KK#KK#KK#KK#KK#KKK#h#+      KKKKKKKKK      h#+h#+                     h#+@@@@@@@@@eeeeeeeee+-kkkkkk.+-kkkkkk.                  ",
"hJJJJDJJDJJDJJDJJDJJDJJDJJ#h#+      JJJJJJJJJ      h#+h#+                     h#+@@@@@@@@@sssssssss+{45kkkk.+{kkkk9r.                  ",
"hIIIIIIIIIIIIIIIIIIIIIIIII#h#+      IIIIIIIII      h#+h#+                     h#+@@@@@@@@@bbbbbbbbb+5qe9skk.+5kk9s7w.                  ",
"hHHHHHHHHHHHHHHHHHHHHHHHHH#h#+      HHHHHHHHH      h#+h#+                     h#+@@@@@@@@@ccccccccc+6ms7wuc.+6ms7wuc.                  ",
"hGGG#GG#GG#GG#GG#GG#GG#GGG#h#+      GGGGGGGGG      h#+h#+                     h#+@@@@@@@@@fffffffff+s7wb0xd.+s7wb0xd.                  ",
"hFFFFDFFDFFDFFDFFDFFDFFDFF#h#+      FFFFFFFFF      h#+h#+                     h#+@@@@@@@@@yyyyyyyyyttb0xdf].ttb0xdf].                  ",
"hEEEEEEEEEEEEEEEEEEEEEEEEE#h#+      EEEEEEEEE      h#+h#+                     h#+@@@@@@@@@...........................                  ",
"hCCCCCCCCCCCCCCCCCCCCCCCCC#h#+      CCCCCCCCC      h#+h#hhhhhhhhhhhhhhhhhhhhhhh#+####################################                  ",
"hBBB#BB#BB#BB#BB#BB#BB#BBB#h#+      BBBBBBBBB      h#+h#########################+hhhhhhhhhhhhhhhhhhhhhhhhhhhhhhhhhhhh                  ",
"hAAAADAADAADAADAADAADAADAA#h#+      AAAAAAAAA      h#+h#########################+hhhhhhhhhhhhhhhhhhhhhhhhhhhhhhhhhhhh                  ",
"hzzzzzzzzzzzzzzzzzzzzzzzzz#h#+      zzzzzzzzz      h#+h#########################+hhhhhhhhhhhhhhhhhhhhhhhhhhhhhhhhhhhh                  ",
"hz+++++++++++++++++++++++z#h#+      +++++++++      h#++++++++++++++++++++++++++++++++++++++++++++++++++++++++++++++++                  "};
