/* XPM */
static char * mac_9x19_xpm[] = {
"135 133 35 1",
" 	c None",
".	c #000000",
"+	c #6E6E6E",
"@	c #969696",
"#	c #FFFFFF",
"$	c #D5D6D5",
"%	c #8B898B",
"&	c #8B858B",
"*	c #838983",
"=	c #CDCACD",
"-	c #202020",
";	c #182018",
">	c #C5CAC5",
",	c #CDC6CD",
"'	c #9C999C",
")	c #9C959C",
"!	c #ACAAAC",
"~	c #BDBABD",
"{	c #DEDADE",
"]	c #A4AAA4",
"^	c #DED6DE",
"/	c #EEEAEE",
"(	c #EEE6EE",
"_	c #E6EAE6",
":	c #949594",
"<	c #DCDCDC",
"[	c #808080",
"}	c #F2F3F2",
"|	c #DADBDA",
"1	c #D9DAD9",
"2	c #D6D7D6",
"3	c #D7D8D7",
"4	c #737173",
"5	c #6A6D6A",
"6	c #626D62",
"         ...................................................................................................+@@@@@@@#+@@@@@@@#+@@@@@@@#",
"         #########.#########################################################################################+@@@@@@@#+@@@@@@@#+@@@@@@@#",
"         $$$$$$$$$.#$$$$$$$$$$$$$$$$$$$$$$$$$$$$$$$$$$$$$$$$$$$$$$$$$$$$$$$$$$$$$$$$$$$$$$$$$$$$$$$$$$$$$$$$+@@@@@@@#+@@@@@@@#+@@@@@@@#",
"         $$$$$$$$$.#$$$$$$$$$$$$$$$$$$$$$$$$$$$$$$$$$$$$$$$$$$$$$$$$$$$$$$$$$$$$$$$$$$$$$$$$$$$$$$$$$$$$$$$$+@@@@@@@#+@@@@@@@#+@@@@@@@#",
"         $$$$$$$$$.#$$%&%&%*&%&%%*=$$$$%&%&%*&%&%%*=$$$$$%&%&%*&%&%%*=$$$$$%&%&%*&%&%%*=$$$$$%&%&%*&%&%%*=$$+@@@@@@@#+@@@@@@@#+@@@@@@@#",
"         $$$$$$$$$.#$$&-;------;--#$$$$&-;------;--#$$$$$&-;------;--#$$$$$&-;------;--#$$$$$&-;------;--#$$+@@@@@@@#+@@@@@@@#+@@@@@@@#",
"         $$$$$$$$$.#$$%-#==>,>=,=-#$$$$%-#==>,.=,=-#$$$$$%-#==>,>=,=-#$$$$$%-#==>,>=,=-#$$$$$%-#==>,>=,=-#$$+@@@@@@@#+@@@@@@@#+@@@@@@@#",
"         $$$$$$$$$.#$$&->')!!~~=%-#$$$$&->')!!.~=%-#$$$$$&->')!!~~=%-#$$$$$&->')!!~~=%-#$$$$$&->')!!~~=%-#$$+@@@@@@@#+@@@@@@@#+@@@@@@@#",
"         $$$$$$$$$.#$$%-,'!!~~>,%;#$$$$%-,'!!~.>,%;#$$$$$%-,'!!~~>,%;#$$$$$%-,'!!~~>,%;#$$$$$%-,'!!~~>,%;#$$+@@@@@@@#+@@@@@@@#+@@@@@@@#",
"         $$$$$$$$$.#$$%-=!!~~=={%-#$$$$%-=!!~~.={%-#$$$$$%-.........-#$$$$$%-=!!~~=={%-#$$$$$%-=!!~~=={%-#$$+@@@@@@@#+@@@@@@@#+@@@@@@@#",
"         $$$$$$$$$.#$$%-=]~~>={^&;#$$$$%-=]~~>.{^&;#$$$$$%-=]~~>={^&;#$$$$$%-=]~~>={^&;#$$$$$%-=]~~>={^&;#$$+@@@@@@@#+@@@@@@@#+@@@@@@@#",
"         $$$$$$$$$.#$$%;,~~,={{/%-#$$$$%;......{/%-#$$$$$%;.........-#$$$$$%;,~~,={{/%-#$$$$$%;,~~,={{/%-#$$+@@@@@@@#+@@@@@@@#+@@@@@@@#",
"         $$$$$$$$$.#$$%-=~==^{(_%-#$$$$%-=~==^{(_%-#$$$$$%-=~==^{(_%-#$$$$$%-=~==^{(_%-#$$$$$%-=~==^{(_%-#$$+@@@@@@@#+@@@@@@@#+@@@@@@@#",
"         $$$$$$$$$.#$$%-,=,{{//#&-#$$$$%-,=,{{//#&-#$$$$$%-,=,{{//#&-#$$$$$%-,=,{{//#&-#$$$$$%-,=,{{//#&-#$$+@@@@@@@#+@@@@@@@#+@@@@@@@#",
"         $$$$$$$$$.#$$*->%*%%&*%%-#$$$$*->%*%%&*%%-#$$$$$*->%*%%&*%%-#$$$$$*->%*%%&*%%-#$$$$$*->%*%%&*%%-#$$+@@@@@@@#+@@@@@@@#+@@@@@@@#",
"         $$$$$$$$$.#$$%-----------#$$$$%-----------#$$$$$%-----------#$$$$$%-----------#$$$$$%-----------#$$+@@@@@@@#+@@@@@@@#+@@@@@@@#",
"         $$$$$$$$$.#$$,############$$$$,############$$$$$,############$$$$$,############$$$$$,############$$+@@@@@@@#+@@@@@@@#+@@@@@@@#",
"         $$$$$$$$$.#$$$$$$$$$$$$$$$$$$$$$$$$$$$$$$$$$$$$$$$$$$$$$$$$$$$$$$$$$$$$$$$$$$$$$$$$$$$$$$$$$$$$$$$$+@@@@@@@#+@@@@@@@#+@@@@@@@#",
"         :::::::::.=::::::::::::::::::::::::::::::::::::::::::::::::::::::::::::::::::::::::::::::::::::::::+@@@@@@@#+@@@@@@@#+@@@@@@@#",
"............................................................................................................#$$$$$$$+#$$$$$$$++$$$$$$$#",
"...................##########################################################################################$$$$$$$+#$$$$$$$++$$$$$$$#",
"...................#$$$$$$$$$$$$$$$$$$$$$$$$$$$$$$$$$$$$$$$$$$$$$$$$$$$$$$$$$$$$$$$$$$$$$$$$$$$$$$$$$$$$$$$$#$$$$$$$+#$$$$$$$++$$$$$$$#",
"...................#$$$$$$$$$$$$$$$$$$$$$$$$$$$$$$$$$$$$$$$$$$$$$$$$$$$$$$$$$$$$$$$$$$$$$$$$$$$$$$$$$$$$$$$$#$$$$$$$+#$$$$$$$++$$$$$$$#",
"...................#$$%&%&%*&%&%%*=$$$$%&%&%*&%&%%*=$$$$$%&%&%*&%&%%*=$$$$$%&%&%*&%&%%*=$$$$$%&%&%*&%&%%*=$$#$$$$$$$+#$$$$$$$++$$$$$$$#",
"...................#$$&-;------;--#$$$$&-;------;--#$$$$$&-;------;--#$$$$$&-;------;--#$$$$$&-;------;--#$$#$$$$$$$+#$$$$$$$++$$$$$$$#",
"...................#$$%-%%%%%%%%%-#$$$$%-%%%%%.%%%-#$$$$$%-%%%%%%%%%-#$$$$$%-%%%%%%%%%-#$$$$$%-%%%%%%%%%-#$$#$$$$$$$+#$$$$$$$++$$$$$$$#",
"...................#$$&-%')!!~~=>-#$$$$&-%')!!.~=>-#$$$$$&-%')!!~~=>-#$$$$$&-%')!!~~=>-#$$$$$&-%')!!~~=>-#$$#$$$$$$$+#$$$$$$$++$$$$$$$#",
"...................#$$%-%'!!~~>,>;#$$$$%-%'!!~.>,>;#$$$$$%-%'!!~~>,>;#$$$$$%-%'!!~~>,>;#$$$$$%-%'!!~~>,>;#$$#$$$$$$$+#$$$$$$$++$$$$$$$#",
"...................#$$%-%!!~~=={>-#$$$$%-%!!~~.={>-#$$$$$%-.........-#$$$$$%-%!!~~=={>-#$$$$$%-%!!~~=={>-#$$#$$$$$$$+#$$$$$$$++$$$$$$$#",
"...................#$$%-%]~~>={^>;#$$$$%-%]~~>.{^>;#$$$$$%-%]~~>={^>;#$$$$$%-%]~~>={^>;#$$$$$%-%]~~>={^>;#$$#$$$$$$$+#$$$$$$$++$$$$$$$#",
"...................#$$%;%~~,={{/>-#$$$$%;......{/>-#$$$$$%;.........-#$$$$$%;%~~,={{/>-#$$$$$%;%~~,={{/>-#$$#$$$$$$$+#$$$$$$$++$$$$$$$#",
"...................#$$%-%~==^{(_>-#$$$$%-%~==^{(_>-#$$$$$%-%~==^{(_>-#$$$$$%-%~==^{(_>-#$$$$$%-%~==^{(_>-#$$#$$$$$$$+#$$$$$$$++$$$$$$$#",
"...................#$$%-%=,{{//#>-#$$$$%-%=,{{//#>-#$$$$$%-%=,{{//#>-#$$$$$%-%=,{{//#>-#$$$$$%-%=,{{//#>-#$$#$$$$$$$+#$$$$$$$++$$$$$$$#",
"...................#$$*-%>>>>>>>>-#$$$$*-%>>>>>>>>-#$$$$$*-%>>>>>>>>-#$$$$$*-%>>>>>>>>-#$$$$$*-%>>>>>>>>-#$$#$$$$$$$+#$$$$$$$++$$$$$$$#",
"...................#$$%-----------#$$$$%-----------#$$$$$%-----------#$$$$$%-----------#$$$$$%-----------#$$#$$$$$$$+#$$$$$$$++$$$$$$$#",
"...................#$$,############$$$$,############$$$$$,############$$$$$,############$$$$$,############$$#$$$$$$$+#$$$$$$$++$$$$$$$#",
"...................#$$$$$$$$$$$$$$$$$$$$$$$$$$$$$$$$$$$$$$$$$$$$$$$$$$$$$$$$$$$$$$$$$$$$$$$$$$$$$$$$$$$$$$$$#$$$$$$$+#$$$$$$$++$$$$$$$#",
"...................=::::::::::::::::::::::::::::::::::::::::::::::::::::::::::::::::::::::::::::::::::::::::#$$$$$$$+#$$$$$$$++$$$$$$$#",
"            .::::...........................................................................................#######$+#######$+#######$+",
"            $....<###########################################################################################$$$$$$$+#$$$$$$$+#$$$$$$$+",
"            .###:.$$$$$$$$$$$$$$$$$$$$$$$$$$$$$$$$$$$$$$$$$$$$$$$$$$$$$$$$$$$$$$$$$$$$$$$$$$$$$$$$$$$$$$$$$$#$$$$$$$+#$$$$$$$+#$$$$$$$+",
"            .#$$:.$$$$$$$$$$$$$$$$$$$$$$$$$$$$$$$$$$$$$$$$$$$$$$$$$$$$$$$$$$$$$$$$$$$$$$$$$$$$$$$$$$$$$$$$$$#$$$$$$$+#$$$$$$$+#$$$$$$$+",
"            .#$$:.$$$%&%&%*&%&%%*=$$$$$%&%&%*&%&%%*=$$$$$%&%&%*&%&%%*=$$$$$%&%&%*&%&%%*=$$$$$%&%&%*&%&%%*=$$#$$$$$$$+#$$$$$$$+#$$$$$$$+",
"            .#$$:.$$$&-;------;--#$$$$$&-;------;--#$$$$$&-;------;--#$$$$$&-;------;--#$$$$$&-;------;--#$$#$$$$$$$+#$$$$$$$+#$$$$$$$+",
"            .#$$:.$$$%-#==>,>=,=-#$$$$$%-#==>,>=,=-#$$$$$%-#==>,>=,=-#$$$$$%-#==>,>=,=-#$$$$$%-#==>,>=,=-#$$#$$.$$$$+#$$.$$$$+#$$$$$$$+",
"            .#$$:.$$$&->')!!~~=%-#$$$$$&->')!!~~=%-#$$$$$&->')!!~~=%-#$$$$$&->')!!~~=%-#$$$$$&->')!!~~=%-#$$#$$..$$$+#$$..$$$+#$$$[$$$+",
"            .#$$:.$$$%-,'!!~~>,%;#$$$$$%-,'!!~~>,%;#$$$$$%-,'!!~~>,%;#$$$$$%-,'!!~~>,%;#$$$$$%-,'!!~~>,%;#$$#$...$$$+#$...$$$+#$$$[[$$+",
"            .#$$:.$$$%-=!!~~=={%-#$$$$$%-=!!~~=={%-#$$$$$%-=!!~~=={%-#$$$$$%-=!!~~=={%-#$$$$$%-=!!~~=={%-#$$#$....$$+#$....$$+#$$[[[$$+",
"            .#$$:.$$$%-=]~~>={^&;#$$$$$%-=]~~>={^&;#$$$$$%-=]~~>={^&;#$$$$$%-=]~~>={^&;#$$$$$%-=]~~>={^&;#$$#.....$$+#.....$$+#$$[[[[$+",
"            .#$$:.$$$%;,~~,={{/%-#$$$$$%;,~~,={{/%-#$$$$$%;,~~,={{/%-#$$$$$%;,~~,={{/%-#$$$$$%;,~~,={{/%-#$$#......$+#......$+#$[[[[[$+",
"            .#$$:.$$$%-=~==^{(_%-#$$$$$%-=~==^{(_%-#$$$$$%-=~==^{(_%-#$$$$$%-=~==^{(_%-#$$$$$%-=~==^{(_%-#$$#$$$$$$$+#$$$$$$$+#$[[[[[[+",
".$...........#$$:.$$$%-,=,{{//#&-#$$$$$%-,=,{{//#&-#$$$$$%-,=,{{//#&-#$$$$$%-,=,{{//#&-#$$$$$%-,=,{{//#&-#$$#$$$$$$$+#$$$$$$$+#$$$$$$$+",
":.############$$:.$$$*->%*%%&*%%-#$$$$$*->%*%%&*%%-#$$$$$*->%*%%&*%%-#$$$$$*->%*%%&*%%-#$$$$$*->%*%%&*%%-#$$#$$$$$$$+#$$$$$$$+#$$$$$$$+",
":.#$$$$$$$$$$$$$:.$$$%-----------#$$$$$%-----------#$$$$$%-----------#$$$$$%-----------#$$$$$%-----------#$$#$$$$$$$+#$$$$$$$+#$$$$$$$+",
":.#$$$$$$$$$$$$$:.$$$,############$$$$$,############$$$$$,############$$$$$,############$$$$$,############$$#$$$$$$$+#$$$$$$$+#$$$$$$$+",
":.:::::::::::::::.$$$$$$$$$$$$$$$$$$$$$$$$$$$$$$$$$$$$$$$$$$$$$$$$$$$$$$$$$$$$$$$$$$$$$$$$$$$$$$$$$$$$$$$$$$$$$$$$$$+$$$$$$$$+$$$$$$$$+",
".<................::::::::::::::::::::::::::::::::::::::::::::::::::::::::::::::::::::::::::::::::::::::::::+++++++++++++++++++++++++++",
"            .::::...........................................................................................#######$+#######$+#######$+",
"            $....<###########################################################################################$$$$$$$+#$$$$$$$+#$$$$$$$+",
"            .###:.$$$$$$$$$$$$$$$$$$$$$$$$$$$$$$$$$$$$$$$$$$$$$$$$$$$$$$$$$$$$$$$$$$$$$$$$$$$$$$$$$$$$$$$$$$#$$$$$$$+#$$$$$$$+#$$$$$$$+",
"            .#$$:.$$$$$$$$$$$$$$$$$$$$$$$$$$$$$$$$$$$$$$$$$$$$$$$$$$$$$$$$$$$$$$$$$$$$$$$$$$$$$$$$$$$$$$$$$$#$$$$$$$+#$$$$$$$+#$$$$$$$+",
"            .#$$:.$$$%&%&%*&%&%%*=$$$$$%&%&%*&%&%%*=$$$$$%&%&%*&%&%%*=$$$$$%&%&%*&%&%%*=$$$$$%&%&%*&%&%%*=$$#$$$$$$$+#$$$$$$$+#$$$$$$$+",
"            .#$$:.$$$&-;------;--#$$$$$&-;------;--#$$$$$&-;------;--#$$$$$&-;------;--#$$$$$&-;------;--#$$#$$$$$$$+#$$$$$$$+#$$$$$$$+",
"            .#$$:.$$$%-%%%%%%%%%-#$$$$$%-%%%%%%%%%-#$$$$$%-%%%%%%%%%-#$$$$$%-%%%%%%%%%-#$$$$$%-%%%%%%%%%-#$$#......$+#......$+#$$$$$$$+",
"            .#$$:.$$$&-%')!!~~=>-#$$$$$&-%')!!~~=>-#$$$$$&-%')!!~~=>-#$$$$$&-%')!!~~=>-#$$$$$&-%')!!~~=>-#$$#.....$$+#.....$$+#$[[[[[[+",
"            .#$$:.$$$%-%'!!~~>,>;#$$$$$%-%'!!~~>,>;#$$$$$%-%'!!~~>,>;#$$$$$%-%'!!~~>,>;#$$$$$%-%'!!~~>,>;#$$#$....$$+#$....$$+#$[[[[[$+",
"            .#$$:.$$$%-%!!~~=={>-#$$$$$%-%!!~~=={>-#$$$$$%-%!!~~=={>-#$$$$$%-%!!~~=={>-#$$$$$%-%!!~~=={>-#$$#$...$$$+#$...$$$+#$$[[[[$+",
"            .#$$:.$$$%-%]~~>={^>;#$$$$$%-%]~~>={^>;#$$$$$%-%]~~>={^>;#$$$$$%-%]~~>={^>;#$$$$$%-%]~~>={^>;#$$#$$..$$$+#$$..$$$+#$$[[[$$+",
"            .#$$:.$$$%;%~~,={{/>-#$$$$$%;%~~,={{/>-#$$$$$%;%~~,={{/>-#$$$$$%;%~~,={{/>-#$$$$$%;%~~,={{/>-#$$#$$.$$$$+#$$.$$$$+#$$$[[$$+",
"            .#$$:.$$$%-%~==^{(_>-#$$$$$%-%~==^{(_>-#$$$$$%-%~==^{(_>-#$$$$$%-%~==^{(_>-#$$$$$%-%~==^{(_>-#$$#$$$$$$$+#$$$$$$$+#$$$[$$$+",
".$...........#$$:.$$$%-%=,{{//#>-#$$$$$%-%=,{{//#>-#$$$$$%-%=,{{//#>-#$$$$$%-%=,{{//#>-#$$$$$%-%=,{{//#>-#$$#$$$$$$$+#$$$$$$$+#$$$$$$$+",
":.############$$:.$$$*-%>>>>>>>>-#$$$$$*-%>>>>>>>>-#$$$$$*-%>>>>>>>>-#$$$$$*-%>>>>>>>>-#$$$$$*-%>>>>>>>>-#$$#$$$$$$$+#$$$$$$$+#$$$$$$$+",
":.#$$$$$$$$$$$$$:.$$$%-----------#$$$$$%-----------#$$$$$%-----------#$$$$$%-----------#$$$$$%-----------#$$#$$$$$$$+#$$$$$$$+#$$$$$$$+",
":.#$$$$$$$$$$$$$:.$$$,############$$$$$,############$$$$$,############$$$$$,############$$$$$,############$$#$$$$$$$+#$$$$$$$+#$$$$$$$+",
":.:::::::::::::::.$$$$$$$$$$$$$$$$$$$$$$$$$$$$$$$$$$$$$$$$$$$$$$$$$$$$$$$$$$$$$$$$$$$$$$$$$$$$$$$$$$$$$$$$$$$$$$$$$$+$$$$$$$$+$$$$$$$$+",
".<................::::::::::::::::::::::::::::::::::::::::::::::::::::::::::::::::::::::::::::::::::::::::::+++++++++++++++++++++++++++",
"............................#$$:.   .........   .#$$:..#$$:.               .#$$:.+++++++++}}}}}}}}}}}}}}}}$+#######$+                  ",
".########################$..#$$:.   #########   .#$$:..#$$:.               .#$$:.@@@@@@@@@$$$$$$$$$}$$$$$$$+#|12$$$$+                  ",
".#$$$$$$$$$$$$$$$$$$$$$$$:..#$$:.   $$$$$$$$$   .#$$:..#$$:.               .#$$:.@@@@@@@@@$$$$$$$$$}$$$$$$$+#2$$$$$$+                  ",
".#$$$$$$$$$$$$$$$$$$$$$$$:..#$$:.   $$$$$$$$$   .#$$:..#$$:.               .#$$:.@@@@@@@@@$$$$$$$$$}$$$$$.$+#.$$$$$$+                  ",
".#$$$$$$$$$$$$$$$$$$$$$$$:..#$$:.   $$$$$$$$$   .#$$:..#$$:.               .#$$:.@@@@@@@@@$$$$$$$$$}$$$...$+#...$$$$+                  ",
".#$$$$$$$$$$$$$$$$$$$$$$$:..#$$:.   $$$$$$$$$   .#$$:..#$$:.               .#$$:.@@@@@@@@@$$$$$$$$$}$.....$+#.....$$+                  ",
".#$$$$$$$$$$$$$$$$$$$$$$$:..#$$:.   $$$$$$$$$   .#$$:..#$$:.               .#$$:.@@@@@@@@@$$$$$$$$$}......$+#......$+                  ",
".#$$$$$$$$$$$$$$$$$$$$$$$:..#$$:.   $$$$$$$$$   .#$$:..#$$:.               .#$$:.@@@@@@@@@$$$$$$$$$}$$....$+#....$$$+                  ",
".#$$$$$$$$$$$$$$$$$$$$$$$:..#$$:.   $$$$$$$$$   .#$$:..#$$:.               .#$$:.@@@@@@@@@$$$$$$$$$}$$$$..$+#..$$$$$+                  ",
".#$$$$$$$$$$$$$$$$$$$$$$$:..#$$:.   $$$$$$$$$   .#$$:..#$$:.               .#$$:.@@@@@@@@@$$$$$$$$$}$$$$$$$+#$$$$$$$+                  ",
".#$$$$$$$$$$$$$$$$$$$$$$$:..#$$:.   $$$$$$$$$   .#$$:..#$$:.               .#$$:.@@@@@@@@@$$$$$$$$$}$$$$$$$+#$$$$$$$+                  ",
".#$$$$$$$$$$$$$$$$$$$$$$$:..#$$:.   $$$$$$$$$   .#$$:..#$$:.               .#$$:.@@@@@@@@@$$$$$$$$$}$$$$$$$+#$$$$$$$+                  ",
".#$$$$$$$$$$$$$$$$$$$$$$$:..#$$:.   $$$$$$$$$   .#$$:..#$$:.               .#$$:.@@@@@@@@@$$$$$$$$$$$$$$$$$+$$$$$$$$+                  ",
".#$$$$$$$$$$$$$$$$$$$$$$$:..#$$:.   $$$$$$$$$   .#$$:..#$$:.................#$$:.@@@@@@@@@+++++++++++++++++++++++++++                  ",
".#$$$$$$$$$$$$$$$$$$$$$$$:..#$$:.   $$$$$$$$$   .#$$:..#$$$##################$$:.####################################                  ",
".#$$$$$$$$$$$$$$$$$$$$$$$:..#$$:.   $$$$$$$$$   .#$$:..#$$$$$$$$$$$$$$$$$$$$$$$:.$$$$$$$$$$$$$$$$$$$$$$$$$$$$$$$$$$$$                  ",
".#$$$$$$$$$$$$$$$$$$$$$$$:..#$$:.   $$$$$$$$$   .#$$:..#$$$$$$$$$$$$$$$$$$$$$$$:.$$$$$$$$$$$$$$$$$$$$$$$$$$$$$$$$$$$$                  ",
".#$$$$$$$$$$$$$$$$$$$$$$$:..#$$:.   $$$$$$$$$   .#$$:..$::::::::::::::::::::::::.::::::::::::::::::::::::::::::::::::                  ",
".#$$:::::::::::::::::::$$:..#$$:.   :::::::::   .#$$:................................................................                  ",
"............................#$$:.   .........   .#$$:..#$$:.               .#$$:.+++++++++################$+#######$+                  ",
".########################$..#$$:.   #########   .#$$:..#$$:.               .#$$:.@@@@@@@@@$$$$$$$$$#$$$$$$$+#32$$$$$+                  ",
".#$$$$$$$$$$$$$$$$$$$$$$$:..#$$:.   $$$$$$$$$   .#$$:..#$$:.               .#$$:.@@@@@@@@@$$$$$$$$$#$$$$$$$+#$$$$$$$+                  ",
".#$$$$$$$$$$$$$$$$$$$$$$$:..#$$:.   $$$$$$$$$   .#$$:..#$$:.               .#$$:.@@@@@@@@@$$$$$$$$$#$$$$$.$+#.$$$$$$+                  ",
".#$$$$$$$#########$$$$$$$:..#$$:.   $$$$$$$$$   .#$$:..#$$:.               .#$$:.@@@@@@@@@$$$$$$$$$#$$$...$+#...$$$$+                  ",
".#$$$$$$$454545454$$$$$$$:..#$$:.   $$$$$$$$$   .#$$:..#$$:.               .#$$:.@@@@@@@@@$$$$$$$$$#$.....$+#.....$$+                  ",
".#$$$$$$$#########$$$$$$$:..#$$:.   $$$$$$$$$   .#$$:..#$$:.               .#$$:.@@@@@@@@@$$$$$$$$$#......$+#......$+                  ",
".#$$$$$$$454545454$$$$$$$:..#$$:.   $$$$$$$$$   .#$$:..#$$:.               .#$$:.@@@@@@@@@$$$$$$$$$#$$....$+#....$$$+                  ",
".#$$$$$$$#########$$$$$$$:..#$$:.   $$$$$$$$$   .#$$:..#$$:.               .#$$:.@@@@@@@@@$$$$$$$$$#$$$$..$+#..$$$$$+                  ",
".#$$$$$$$454545454$$$$$$$:..#$$:.   $$$$$$$$$   .#$$:..#$$:.               .#$$:.@@@@@@@@@$$$$$$$$$#$$$$$$$+#$$$$$$$+                  ",
".#$$$$$$$#########$$$$$$$:..#$$:.   $$$$$$$$$   .#$$:..#$$:.               .#$$:.@@@@@@@@@$$$$$$$$$#$$$$$$$+#$$$$$$$+                  ",
".#$$$$$$$464646464$$$$$$$:..#$$:.   $$$$$$$$$   .#$$:..#$$:.               .#$$:.@@@@@@@@@$$$$$$$$$#$$$$$$$+#$$$$$$$+                  ",
".#$$$$$$$#########$$$$$$$:..#$$:.   $$$$$$$$$   .#$$:..#$$:.               .#$$:.@@@@@@@@@$$$$$$$$$$$$$$$$$+$$$$$$$$+                  ",
".#$$$$$$$454545454$$$$$$$:..#$$:.   $$$$$$$$$   .#$$:..#$$:.................#$$:.@@@@@@@@@+++++++++++++++++++++++++++                  ",
".#$$$$$$$#########$$$$$$$:..#$$:.   $$$$$$$$$   .#$$:..#$$$##################$$:.####################################                  ",
".#$$$$$$$454545454$$$$$$$:..#$$:.   $$$$$$$$$   .#$$:..#$$$$$$$$$$$$$$$$$$$$$$$:.$$$$$$$$$$$$$$$$$$$$$$$$$$$$$$$$$$$$                  ",
".#$$$$$$$$$$$$$$$$$$$$$$$:..#$$:.   $$$$$$$$$   .#$$:..#$$$$$$$$$$$$$$$$$$$$$$$:.$$$$$$$$$$$$$$$$$$$$$$$$$$$$$$$$$$$$                  ",
".#$$$$$$$$$$$$$$$$$$$$$$$:..#$$:.   $$$$$$$$$   .#$$:..$::::::::::::::::::::::::.::::::::::::::::::::::::::::::::::::                  ",
".#$$:::::::::::::::::::$$:..#$$:.   :::::::::   .#$$:................................................................                  ",
"............................#$$:.   .........   .#$$:..#$$:.               .#$$:.+++++++++++++++++++++++++$#+++++++$#                  ",
".########################$..#$$:.   #########   .#$$:..#$$:.               .#$$:.@@@@@@@@@$$$$$$$$$+$$$$$$$#+2$$$$$$#                  ",
".#$$$$$$$$$$$$$$$$$$$$$$$:..#$$:.   $$$$$$$$$   .#$$:..#$$:.               .#$$:.@@@@@@@@@$$$$$$$$$+$$$$$$$#+$$$$$$$#                  ",
".#$$$$$$$$$$$$$$$$$$$$$$$:..#$$:.   $$$$$$$$$   .#$$:..#$$:.               .#$$:.@@@@@@@@@$$$$$$$$$+$$$$$$$#+$$$$$$$#                  ",
".#$$$$$$$#########$$$$$$$:..#$$:.   $$$$$$$$$   .#$$:..#$$:.               .#$$:.@@@@@@@@@$$$$$$$$$+$$$$$$[#+$[$$$$$#                  ",
".#$$$$$$$454545454$$$$$$$:..#$$:.   $$$$$$$$$   .#$$:..#$$:.               .#$$:.@@@@@@@@@$$$$$$$$$+$$$$[[[#+$[[[$$$#                  ",
".#$$$$$$$#########$$$$$$$:..#$$:.   $$$$$$$$$   .#$$:..#$$:.               .#$$:.@@@@@@@@@$$$$$$$$$+$$[[[[[#+$[[[[[$#                  ",
".#$$$$$$$454545454$$$$$$$:..#$$:.   $$$$$$$$$   .#$$:..#$$:.               .#$$:.@@@@@@@@@$$$$$$$$$+$[[[[[[#+$[[[[[[#                  ",
".#$$$$$$$#########$$$$$$$:..#$$:.   $$$$$$$$$   .#$$:..#$$:.               .#$$:.@@@@@@@@@$$$$$$$$$+$$$[[[[#+$[[[[$$#                  ",
".#$$$$$$$454545454$$$$$$$:..#$$:.   $$$$$$$$$   .#$$:..#$$:.               .#$$:.@@@@@@@@@$$$$$$$$$+$$$$$[[#+$[[$$$$#                  ",
".#$$$$$$$#########$$$$$$$:..#$$:.   $$$$$$$$$   .#$$:..#$$:.               .#$$:.@@@@@@@@@$$$$$$$$$+$$$$$$$#+$$$$$$$#                  ",
".#$$$$$$$464646464$$$$$$$:..#$$:.   $$$$$$$$$   .#$$:..#$$:.               .#$$:.@@@@@@@@@$$$$$$$$$+$$$$$$$#+$$$$$$$#                  ",
".#$$$$$$$#########$$$$$$$:..#$$:.   $$$$$$$$$   .#$$:..#$$:.               .#$$:.@@@@@@@@@$$$$$$$$$$$$$$$$$#$$$$$$$$#                  ",
".#$$$$$$$454545454$$$$$$$:..#$$:.   $$$$$$$$$   .#$$:..#$$:.................#$$:.@@@@@@@@@###########################                  ",
".#$$$$$$$#########$$$$$$$:..#$$:.   $$$$$$$$$   .#$$:..#$$$##################$$:.####################################                  ",
".#$$$$$$$454545454$$$$$$$:..#$$:.   $$$$$$$$$   .#$$:..#$$$$$$$$$$$$$$$$$$$$$$$:.$$$$$$$$$$$$$$$$$$$$$$$$$$$$$$$$$$$$                  ",
".#$$$$$$$$$$$$$$$$$$$$$$$:..#$$:.   $$$$$$$$$   .#$$:..#$$$$$$$$$$$$$$$$$$$$$$$:.$$$$$$$$$$$$$$$$$$$$$$$$$$$$$$$$$$$$                  ",
".#$$$$$$$$$$$$$$$$$$$$$$$:..#$$:.   $$$$$$$$$   .#$$:..$::::::::::::::::::::::::.::::::::::::::::::::::::::::::::::::                  ",
".#$$:::::::::::::::::::$$:..#$$:.   :::::::::   .#$$:................................................................                  "};
