/* XPM */
static char * mac_8x16_xpm[] = {
"120 112 32 1",
" 	c None",
".	c #000000",
"+	c #6E6E6E",
"@	c #969696",
"#	c #FFFFFF",
"$	c #D5D6D5",
"%	c #8B898B",
"&	c #8B858B",
"*	c #838983",
"=	c #CDCACD",
"-	c #202020",
";	c #182018",
">	c #C5CAC5",
",	c #9C999C",
"'	c #ACAAAC",
")	c #BDBABD",
"!	c #9C959C",
"~	c #CDC6CD",
"{	c #DEDADE",
"]	c #A4AAA4",
"^	c #DED6DE",
"/	c #EEEAEE",
"(	c #949594",
"_	c #808080",
":	c #F2F3F2",
"<	c #DADBDA",
"[	c #D9DAD9",
"}	c #D6D7D6",
"|	c #D7D8D7",
"1	c #737173",
"2	c #6A6D6A",
"3	c #626D62",
"        ........................................................................................+@@@@@@@+@@@@@@@+@@@@@@@",
"        ########.###############################################################################+@@@@@@@+@@@@@@@+@@@@@@@",
"        $$$$$$$$.#$$$$$$$$$$$$$$$$$$$$$$$$$$$$$$$$$$$$$$$$$$$$$$$$$$$$$$$$$$$$$$$$$$$$$$$$$$$$$$+@@@@@@@+@@@@@@@+@@@@@@@",
"        $$$$$$$$.#$$$$$$$$$$$$$$$$$$$$$$$$$$$$$$$$$$$$$$$$$$$$$$$$$$$$$$$$$$$$$$$$$$$$$$$$$$$$$$+@@@@@@@+@@@@@@@+@@@@@@@",
"        $$$$$$$$.#$$%&%&*&%&%%*=$$$%&%&%&%&%%*=$$$$%&%&%&%&%%*=$$$$%&%&%&%&%%*=$$$$%&%&%&%&%%*=$+@@@@@@@+@@@@@@@+@@@@@@@",
"        $$$$$$$$.#$$&-;-----;--#$$$&-;-----;--#$$$$&-;-----;--#$$$$&-;-----;--#$$$$&-;-----;--#$+@@@@@@@+@@@@@@@+@@@@@@@",
"        $$$$$$$$.#$$&->,''))=%-#$$$&->,!'.)=%-#$$$$&->,!'))=%-#$$$$&->,!'))=%-#$$$$&->,!'))=%-#$+@@@@@@@+@@@@@@@+@@@@@@@",
"        $$$$$$$$.#$$%-~,'))>~%;#$$$%-~,').>~%;#$$$$%-~,'))>~%;#$$$$%-~,'))>~%;#$$$$%-~,'))>~%;#$+@@@@@@@+@@@@@@@+@@@@@@@",
"        $$$$$$$$.#$$%-='))=={%-#$$$%-='').={%-#$$$$%-........-#$$$$%-='')=={%-#$$$$%-='')=={%-#$+@@@@@@@+@@@@@@@+@@@@@@@",
"        $$$$$$$$.#$$%-=])>={^&;#$$$%-=])>.{^&;#$$$$%-=])>={^&;#$$$$%-=])>={^&;#$$$$%-=])>={^&;#$+@@@@@@@+@@@@@@@+@@@@@@@",
"        $$$$$$$$.#$$%;~)~={{/%-#$$$%;.....{/%-#$$$$%;........-#$$$$%;~))={{/%-#$$$$%;~))={{/%-#$+@@@@@@@+@@@@@@@+@@@@@@@",
"        $$$$$$$$.#$$%-~={{//#&-#$$$%-~=~{//#&-#$$$$%-~=~{//#&-#$$$$%-~=~{//#&-#$$$$%-~=~{//#&-#$+@@@@@@@+@@@@@@@+@@@@@@@",
"        $$$$$$$$.#$$*->%%%&*%%-#$$$*->%*%&*%%-#$$$$*->%*%&*%%-#$$$$*->%*%&*%%-#$$$$*->%*%&*%%-#$+@@@@@@@+@@@@@@@+@@@@@@@",
"        $$$$$$$$.#$$%----------#$$$%----------#$$$$%----------#$$$$%----------#$$$$%----------#$+@@@@@@@+@@@@@@@+@@@@@@@",
"        $$$$$$$$.#$$~###########$$$~###########$$$$~###########$$$$~###########$$$$~###########$+@@@@@@@+@@@@@@@+@@@@@@@",
"        $$$$$$$$.#$$$$$$$$$$$$$$$$$$$$$$$$$$$$$$$$$$$$$$$$$$$$$$$$$$$$$$$$$$$$$$$$$$$$$$$$$$$$$$+@@@@@@@+@@@@@@@+@@@@@@@",
"................................................................................................#$$$$$$$#$$$$$$$+$$$$$$$",
".................################################################################################$$$$$$$#$$$$$$$+$$$$$$$",
".................#$$$$$$$$$$$$$$$$$$$$$$$$$$$$$$$$$$$$$$$$$$$$$$$$$$$$$$$$$$$$$$$$$$$$$$$$$$$$$$#$$$$$$$#$$$$$$$+$$$$$$$",
".................#$$$$$$$$$$$$$$$$$$$$$$$$$$$$$$$$$$$$$$$$$$$$$$$$$$$$$$$$$$$$$$$$$$$$$$$$$$$$$$#$$$$$$$#$$$$$$$+$$$$$$$",
".................#$$%&%&*&%&%%*=$$$%&%&%&%&%%*=$$$$%&%&%&%&%%*=$$$$%&%&%&%&%%*=$$$$%&%&%&%&%%*=$#$$$$$$$#$$$$$$$+$$$$$$$",
".................#$$&-;-----;--#$$$&-;-----;--#$$$$&-;-----;--#$$$$&-;-----;--#$$$$&-;-----;--#$#$$$$$$$#$$$$$$$+$$$$$$$",
".................#$$&-%,''))=>-#$$$&-%,!'.)=>-#$$$$&-%,!'))=>-#$$$$&-%,!'))=>-#$$$$&-%,!'))=>-#$#$$$$$$$#$$$$$$$+$$$$$$$",
".................#$$%-%,'))>~>;#$$$%-%,').>~>;#$$$$%-%,'))>~>;#$$$$%-%,'))>~>;#$$$$%-%,'))>~>;#$#$$$$$$$#$$$$$$$+$$$$$$$",
".................#$$%-%'))=={>-#$$$%-%'').={>-#$$$$%-........-#$$$$%-%'')=={>-#$$$$%-%'')=={>-#$#$$$$$$$#$$$$$$$+$$$$$$$",
".................#$$%-%])>={^>;#$$$%-%])>.{^>;#$$$$%-%])>={^>;#$$$$%-%])>={^>;#$$$$%-%])>={^>;#$#$$$$$$$#$$$$$$$+$$$$$$$",
".................#$$%;%)~={{/>-#$$$%;.....{/>-#$$$$%;........-#$$$$%;%))={{/>-#$$$$%;%))={{/>-#$#$$$$$$$#$$$$$$$+$$$$$$$",
".................#$$%-%={{//#>-#$$$%-%=~{//#>-#$$$$%-%=~{//#>-#$$$$%-%=~{//#>-#$$$$%-%=~{//#>-#$#$$$$$$$#$$$$$$$+$$$$$$$",
".................#$$*-%>>>>>>>-#$$$*-%>>>>>>>-#$$$$*-%>>>>>>>-#$$$$*-%>>>>>>>-#$$$$*-%>>>>>>>-#$#$$$$$$$#$$$$$$$+$$$$$$$",
".................#$$%----------#$$$%----------#$$$$%----------#$$$$%----------#$$$$%----------#$#$$$$$$$#$$$$$$$+$$$$$$$",
".................#$$~###########$$$~###########$$$$~###########$$$$~###########$$$$~###########$#$$$$$$$#$$$$$$$+$$$$$$$",
".................#$$$$$$$$$$$$$$$$$$$$$$$$$$$$$$$$$$$$$$$$$$$$$$$$$$$$$$$$$$$$$$$$$$$$$$$$$$$$$$#$$$$$$$#$$$$$$$+$$$$$$$",
"           .((((................................................................................#######$#######$#######$",
"           $....#################################################################################$$$$$$$#$$$$$$$#$$$$$$$",
"           .###($$$$$$$$$$$$$$$$$$$$$$$$$$$$$$$$$$$$$$$$$$$$$$$$$$$$$$$$$$$$$$$$$$$$$$$$$$$$$$$$#$$$$$$$#$$$$$$$#$$$$$$$",
"           .#$$($$$$$$$$$$$$$$$$$$$$$$$$$$$$$$$$$$$$$$$$$$$$$$$$$$$$$$$$$$$$$$$$$$$$$$$$$$$$$$$$#$$$$$$$#$$$$$$$#$$$$$$$",
"           .#$$($$$%&%&%&%&%%*=$$$$%&%&%&%&%%*=$$$$%&%&%&%&%%*=$$$$%&%&%&%&%%*=$$$$%&%&%&%&%%*=$#$$$$$$$#$$$$$$$#$$$$$$$",
"           .#$$($$$&-;-----;--#$$$$&-;-----;--#$$$$&-;-----;--#$$$$&-;-----;--#$$$$&-;-----;--#$#$$.$$$$#$$.$$$$#$$$$$$$",
"           .#$$($$$&->,!'))=%-#$$$$&->,!'))=%-#$$$$&->,!'))=%-#$$$$&->,!'))=%-#$$$$&->,!'))=%-#$#$$..$$$#$$..$$$#$$$_$$$",
"           .#$$($$$%-~,'))>~%;#$$$$%-~,'))>~%;#$$$$%-~,'))>~%;#$$$$%-~,'))>~%;#$$$$%-~,'))>~%;#$#$...$$$#$...$$$#$$$__$$",
"           .#$$($$$%-='')=={%-#$$$$%-='')=={%-#$$$$%-='')=={%-#$$$$%-='')=={%-#$$$$%-='')=={%-#$#$....$$#$....$$#$$___$$",
"           .#$$($$$%-=])>={^&;#$$$$%-=])>={^&;#$$$$%-=])>={^&;#$$$$%-=])>={^&;#$$$$%-=])>={^&;#$#.....$$#.....$$#$$____$",
"           .#$$($$$%;~))={{/%-#$$$$%;~))={{/%-#$$$$%;~))={{/%-#$$$$%;~))={{/%-#$$$$%;~))={{/%-#$#......$#......$#$_____$",
".$..........#$$($$$%-~=~{//#&-#$$$$%-~=~{//#&-#$$$$%-~=~{//#&-#$$$$%-~=~{//#&-#$$$$%-~=~{//#&-#$#$$$$$$$#$$$$$$$#$______",
"(.###########$$($$$*->%*%&*%%-#$$$$*->%*%&*%%-#$$$$*->%*%&*%%-#$$$$*->%*%&*%%-#$$$$*->%*%&*%%-#$#$$$$$$$#$$$$$$$#$$$$$$$",
"(.#$$$$$$$$$$$$($$$%----------#$$$$%----------#$$$$%----------#$$$$%----------#$$$$%----------#$#$$$$$$$#$$$$$$$#$$$$$$$",
"(.#$$$$$$$$$$$$($$$~###########$$$$~###########$$$$~###########$$$$~###########$$$$~###########$#$$$$$$$#$$$$$$$#$$$$$$$",
"(.(((((((((((((($$$$$$$$$$$$$$$$$$$$$$$$$$$$$$$$$$$$$$$$$$$$$$$$$$$$$$$$$$$$$$$$$$$$$$$$$$$$$$$$$$$$$$$$$$$$$$$$$$$$$$$$",
"           .((((................................................................................#######$#######$#######$",
"           $....#################################################################################$$$$$$$#$$$$$$$#$$$$$$$",
"           .###($$$$$$$$$$$$$$$$$$$$$$$$$$$$$$$$$$$$$$$$$$$$$$$$$$$$$$$$$$$$$$$$$$$$$$$$$$$$$$$$#$$$$$$$#$$$$$$$#$$$$$$$",
"           .#$$($$$$$$$$$$$$$$$$$$$$$$$$$$$$$$$$$$$$$$$$$$$$$$$$$$$$$$$$$$$$$$$$$$$$$$$$$$$$$$$$#$$$$$$$#$$$$$$$#$$$$$$$",
"           .#$$($$$%&%&%&%&%%*=$$$$%&%&%&%&%%*=$$$$%&%&%&%&%%*=$$$$%&%&%&%&%%*=$$$$%&%&%&%&%%*=$#$$$$$$$#$$$$$$$#$$$$$$$",
"           .#$$($$$&-;-----;--#$$$$&-;-----;--#$$$$&-;-----;--#$$$$&-;-----;--#$$$$&-;-----;--#$#$$$$$$$#$$$$$$$#$$$$$$$",
"           .#$$($$$&-%,!'))=>-#$$$$&-%,!'))=>-#$$$$&-%,!'))=>-#$$$$&-%,!'))=>-#$$$$&-%,!'))=>-#$#......$#......$#$$$$$$$",
"           .#$$($$$%-%,'))>~>;#$$$$%-%,'))>~>;#$$$$%-%,'))>~>;#$$$$%-%,'))>~>;#$$$$%-%,'))>~>;#$#.....$$#.....$$#$______",
"           .#$$($$$%-%'')=={>-#$$$$%-%'')=={>-#$$$$%-%'')=={>-#$$$$%-%'')=={>-#$$$$%-%'')=={>-#$#$....$$#$....$$#$_____$",
"           .#$$($$$%-%])>={^>;#$$$$%-%])>={^>;#$$$$%-%])>={^>;#$$$$%-%])>={^>;#$$$$%-%])>={^>;#$#$...$$$#$...$$$#$$____$",
"           .#$$($$$%;%))={{/>-#$$$$%;%))={{/>-#$$$$%;%))={{/>-#$$$$%;%))={{/>-#$$$$%;%))={{/>-#$#$$..$$$#$$..$$$#$$___$$",
".$..........#$$($$$%-%=~{//#>-#$$$$%-%=~{//#>-#$$$$%-%=~{//#>-#$$$$%-%=~{//#>-#$$$$%-%=~{//#>-#$#$$.$$$$#$$.$$$$#$$$__$$",
"(.###########$$($$$*-%>>>>>>>-#$$$$*-%>>>>>>>-#$$$$*-%>>>>>>>-#$$$$*-%>>>>>>>-#$$$$*-%>>>>>>>-#$#$$$$$$$#$$$$$$$#$$$_$$$",
"(.#$$$$$$$$$$$$($$$%----------#$$$$%----------#$$$$%----------#$$$$%----------#$$$$%----------#$#$$$$$$$#$$$$$$$#$$$$$$$",
"(.#$$$$$$$$$$$$($$$~###########$$$$~###########$$$$~###########$$$$~###########$$$$~###########$#$$$$$$$#$$$$$$$#$$$$$$$",
"(.(((((((((((((($$$$$$$$$$$$$$$$$$$$$$$$$$$$$$$$$$$$$$$$$$$$$$$$$$$$$$$$$$$$$$$$$$$$$$$$$$$$$$$$$$$$$$$$$$$$$$$$$$$$$$$$",
".........................#$$(.  ........   .#$$(.#$$(.             .#$$(++++++++:::::::::::::::$#######$                ",
".######################$.#$$(.  ########   .#$$(.#$$(.             .#$$(@@@@@@@@$$$$$$$$:$$$$$$$#<[}$$$$                ",
".#$$$$$$$$$$$$$$$$$$$$$(.#$$(.  $$$$$$$$   .#$$(.#$$(.             .#$$(@@@@@@@@$$$$$$$$:$$$$$$$#}$$$$$$                ",
".#$$$$$$$$$$$$$$$$$$$$$(.#$$(.  $$$$$$$$   .#$$(.#$$(.             .#$$(@@@@@@@@$$$$$$$$:$$$$$.$#.$$$$$$                ",
".#$$$$$$$$$$$$$$$$$$$$$(.#$$(.  $$$$$$$$   .#$$(.#$$(.             .#$$(@@@@@@@@$$$$$$$$:$$$...$#...$$$$                ",
".#$$$$$$$$$$$$$$$$$$$$$(.#$$(.  $$$$$$$$   .#$$(.#$$(.             .#$$(@@@@@@@@$$$$$$$$:$.....$#.....$$                ",
".#$$$$$$$$$$$$$$$$$$$$$(.#$$(.  $$$$$$$$   .#$$(.#$$(.             .#$$(@@@@@@@@$$$$$$$$:......$#......$                ",
".#$$$$$$$$$$$$$$$$$$$$$(.#$$(.  $$$$$$$$   .#$$(.#$$(.             .#$$(@@@@@@@@$$$$$$$$:$$....$#....$$$                ",
".#$$$$$$$$$$$$$$$$$$$$$(.#$$(.  $$$$$$$$   .#$$(.#$$(.             .#$$(@@@@@@@@$$$$$$$$:$$$$..$#..$$$$$                ",
".#$$$$$$$$$$$$$$$$$$$$$(.#$$(.  $$$$$$$$   .#$$(.#$$(.             .#$$(@@@@@@@@$$$$$$$$:$$$$$$$#$$$$$$$                ",
".#$$$$$$$$$$$$$$$$$$$$$(.#$$(.  $$$$$$$$   .#$$(.#$$(.             .#$$(@@@@@@@@$$$$$$$$:$$$$$$$#$$$$$$$                ",
".#$$$$$$$$$$$$$$$$$$$$$(.#$$(.  $$$$$$$$   .#$$(.#$$(...............#$$(@@@@@@@@++++++++++++++++++++++++                ",
".#$$$$$$$$$$$$$$$$$$$$$(.#$$(.  $$$$$$$$   .#$$(.#$$$################$$(################################                ",
".#$$$$$$$$$$$$$$$$$$$$$(.#$$(.  $$$$$$$$   .#$$(.#$$$$$$$$$$$$$$$$$$$$$($$$$$$$$$$$$$$$$$$$$$$$$$$$$$$$$                ",
".#$$$$$$$$$$$$$$$$$$$$$(.#$$(.  $$$$$$$$   .#$$(.#$$$$$$$$$$$$$$$$$$$$$($$$$$$$$$$$$$$$$$$$$$$$$$$$$$$$$                ",
".#$$$$$$$$$$$$$$$$$$$$$(.#$$(.  $$$$$$$$   .#$$(.$((((((((((((((((((((((((((((((((((((((((((((((((((((((                ",
".........................#$$(.  ........   .#$$(.#$$(.             .#$$(++++++++###############$#######$                ",
".######################$.#$$(.  ########   .#$$(.#$$(.             .#$$(@@@@@@@@$$$$$$$$#$$$$$$$#|}$$$$$                ",
".#$$$$$$$$$$$$$$$$$$$$$(.#$$(.  $$$$$$$$   .#$$(.#$$(.             .#$$(@@@@@@@@$$$$$$$$#$$$$$$$#$$$$$$$                ",
".#$$$$$$$$$$$$$$$$$$$$$(.#$$(.  $$$$$$$$   .#$$(.#$$(.             .#$$(@@@@@@@@$$$$$$$$#$$$$$.$#.$$$$$$                ",
".#$$$$$$########$$$$$$$(.#$$(.  $$$$$$$$   .#$$(.#$$(.             .#$$(@@@@@@@@$$$$$$$$#$$$...$#...$$$$                ",
".#$$$$$$12121212$$$$$$$(.#$$(.  $$$$$$$$   .#$$(.#$$(.             .#$$(@@@@@@@@$$$$$$$$#$.....$#.....$$                ",
".#$$$$$$########$$$$$$$(.#$$(.  $$$$$$$$   .#$$(.#$$(.             .#$$(@@@@@@@@$$$$$$$$#......$#......$                ",
".#$$$$$$12121212$$$$$$$(.#$$(.  $$$$$$$$   .#$$(.#$$(.             .#$$(@@@@@@@@$$$$$$$$#$$....$#....$$$                ",
".#$$$$$$########$$$$$$$(.#$$(.  $$$$$$$$   .#$$(.#$$(.             .#$$(@@@@@@@@$$$$$$$$#$$$$..$#..$$$$$                ",
".#$$$$$$12121212$$$$$$$(.#$$(.  $$$$$$$$   .#$$(.#$$(.             .#$$(@@@@@@@@$$$$$$$$#$$$$$$$#$$$$$$$                ",
".#$$$$$$########$$$$$$$(.#$$(.  $$$$$$$$   .#$$(.#$$(.             .#$$(@@@@@@@@$$$$$$$$#$$$$$$$#$$$$$$$                ",
".#$$$$$$13131313$$$$$$$(.#$$(.  $$$$$$$$   .#$$(.#$$(...............#$$(@@@@@@@@++++++++++++++++++++++++                ",
".#$$$$$$########$$$$$$$(.#$$(.  $$$$$$$$   .#$$(.#$$$################$$(################################                ",
".#$$$$$$12121212$$$$$$$(.#$$(.  $$$$$$$$   .#$$(.#$$$$$$$$$$$$$$$$$$$$$($$$$$$$$$$$$$$$$$$$$$$$$$$$$$$$$                ",
".#$$$$$$$$$$$$$$$$$$$$$(.#$$(.  $$$$$$$$   .#$$(.#$$$$$$$$$$$$$$$$$$$$$($$$$$$$$$$$$$$$$$$$$$$$$$$$$$$$$                ",
".#$$$$$$$$$$$$$$$$$$$$$(.#$$(.  $$$$$$$$   .#$$(.$((((((((((((((((((((((((((((((((((((((((((((((((((((((                ",
".........................#$$(.  ........   .#$$(.#$$(.             .#$$(+++++++++++++++++++++++$+++++++$                ",
".######################$.#$$(.  ########   .#$$(.#$$(.             .#$$(@@@@@@@@$$$$$$$$+$$$$$$$+}$$$$$$                ",
".#$$$$$$$$$$$$$$$$$$$$$(.#$$(.  $$$$$$$$   .#$$(.#$$(.             .#$$(@@@@@@@@$$$$$$$$+$$$$$$$+$$$$$$$                ",
".#$$$$$$$$$$$$$$$$$$$$$(.#$$(.  $$$$$$$$   .#$$(.#$$(.             .#$$(@@@@@@@@$$$$$$$$+$$$$$$$+$$$$$$$                ",
".#$$$$$$########$$$$$$$(.#$$(.  $$$$$$$$   .#$$(.#$$(.             .#$$(@@@@@@@@$$$$$$$$+$$$$$$_+$_$$$$$                ",
".#$$$$$$12121212$$$$$$$(.#$$(.  $$$$$$$$   .#$$(.#$$(.             .#$$(@@@@@@@@$$$$$$$$+$$$$___+$___$$$                ",
".#$$$$$$########$$$$$$$(.#$$(.  $$$$$$$$   .#$$(.#$$(.             .#$$(@@@@@@@@$$$$$$$$+$$_____+$_____$                ",
".#$$$$$$12121212$$$$$$$(.#$$(.  $$$$$$$$   .#$$(.#$$(.             .#$$(@@@@@@@@$$$$$$$$+$______+$______                ",
".#$$$$$$########$$$$$$$(.#$$(.  $$$$$$$$   .#$$(.#$$(.             .#$$(@@@@@@@@$$$$$$$$+$$$____+$____$$                ",
".#$$$$$$12121212$$$$$$$(.#$$(.  $$$$$$$$   .#$$(.#$$(.             .#$$(@@@@@@@@$$$$$$$$+$$$$$__+$__$$$$                ",
".#$$$$$$########$$$$$$$(.#$$(.  $$$$$$$$   .#$$(.#$$(.             .#$$(@@@@@@@@$$$$$$$$+$$$$$$$+$$$$$$$                ",
".#$$$$$$13131313$$$$$$$(.#$$(.  $$$$$$$$   .#$$(.#$$(...............#$$(@@@@@@@@########################                ",
".#$$$$$$########$$$$$$$(.#$$(.  $$$$$$$$   .#$$(.#$$$################$$(################################                ",
".#$$$$$$12121212$$$$$$$(.#$$(.  $$$$$$$$   .#$$(.#$$$$$$$$$$$$$$$$$$$$$($$$$$$$$$$$$$$$$$$$$$$$$$$$$$$$$                ",
".#$$$$$$$$$$$$$$$$$$$$$(.#$$(.  $$$$$$$$   .#$$(.#$$$$$$$$$$$$$$$$$$$$$($$$$$$$$$$$$$$$$$$$$$$$$$$$$$$$$                ",
".#$$$$$$$$$$$$$$$$$$$$$(.#$$(.  $$$$$$$$   .#$$(.$((((((((((((((((((((((((((((((((((((((((((((((((((((((                "};
