/* XPM */
static char * mono_8x16_xpm[] = {
"120 112 3 1",
" 	c None",
".	c #000000",
"+	c #FFFFFF",
"        ........++++++++++++++++++++++++++++++++                                                ++.+.+.+++.+.+.+++.+.+.+",
"        ........++++++++++++++++++++++++++++++++                                                +.+.+.+++.+.+.+++.+.+.++",
"        ........++............++++............++                                                ++.+.+.+++.+.+.+++.+.+.+",
"        ........++............++++.....+......++                                                +.+.+.+++.+.+.+++.+.+.++",
"        ........++............++++.....+......++                                                ++.+.+.+++.+.+.+++.+.+.+",
"        ........++............++++....+++.....++                                                +.+.+.+++.+.+.+++.+.+.++",
"        ........++............++++....+++.....++                                                ++.+.+.+++.+.+.+++.+.+.+",
"        ........++..+++++++...++++...+++++....++                                                +.+.+.+++.+.+.+++.+.+.++",
"        ........++..++++++++..++++...+++++....++                                                ++.+.+.+++.+.+.+++.+.+.+",
"        ........++...+++++++..++++..+++++++...++                                                +.+.+.+++.+.+.+++.+.+.++",
"        ........++............++++..+++++++...++                                                ++.+.+.+++.+.+.+++.+.+.+",
"        ........++............++++.+++++++++..++                                                +.+.+.+++.+.+.+++.+.+.++",
"        ........++............++++............++                                                ++.+.+.+++.+.+.+++.+.+.+",
"        ........++............++++............++                                                +.+.+.+++.+.+.+++.+.+.++",
"        ........++++++++++++++++++++++++++++++++                                                ++.+.+.+++.+.+.+++.+.+.+",
"        ........++++++++++++++++++++++++++++++++                                                +.+.+.+++.+.+.+++.+.+.++",
"................++++++++++++++++++++++++++++++++                                                .++++++..++++++..++++++.",
"................++++++++++++++++++++++++++++++++                                                .++++++..++++++..++++++.",
"................++............++++............++                                                .++++++..++++++..++++++.",
"................++............++++.....+......++                                                .++++++..++++++..++++++.",
"................++............++++.....+......++                                                .++++++..++++++..++++++.",
"................++............++++....+++.....++                                                .++++++..++++++..++++++.",
"................++............++++....+++.....++                                                .++++++..++++++..++++++.",
"................++..+++++++...++++...+++++....++                                                .++++++..++++++..++++++.",
"................++..++++++++..++++...+++++....++                                                .++++++..++++++..++++++.",
"................++...+++++++..++++..+++++++...++                                                .++++++..++++++..++++++.",
"................++............++++..+++++++...++                                                .++++++..++++++..++++++.",
"................++............++++.+++++++++..++                                                .++++++..++++++..++++++.",
"................++............++++............++                                                .++++++..++++++..++++++.",
"................++............++++............++                                                .++++++..++++++..++++++.",
"................++++++++++++++++++++++++++++++++                                                .++++++..++++++..++++++.",
"................++++++++++++++++++++++++++++++++                                                .++++++..++++++..++++++.",
"++++++++++++++++                                                                                ++++++++++++++++++++++++",
"++++++++++++++++                                                                                ........................",
"++.....++.....++                                                                                ...+.......+.......+....",
"++.....++.....++                                                                                ...+.......+.......+....",
"+++++++++.....++                                                                                ...+.......+.......+....",
"+++++++++.....++                                                                                ..+++.....+++.....+++...",
"++............++                                                                                ..+++.....+++.....+++...",
"++.....++++...++                                                                                ..+++.....+++.....+++...",
"++.....+++....++                                                                                .+++++...+++++...+++++..",
"++.....++.+...++                                                                                .+++++...+++++...+++++..",
"++.....+.+++..++                                                                                .+++++...+++++...+++++..",
"++........+++.++                                                                                +++++++.+++++++.+++++++.",
"++.........+..++                                                                                +++++++.+++++++.+++++++.",
"++............++                                                                                +++++++.+++++++.+++++++.",
"++++++++++++++++                                                                                ........................",
"++++++++++++++++                                                                                ........................",
"++++++++++++++++                                                                                ........................",
"++++++++++++++++                                                                                ........................",
"++.....++.....++                                                                                +++++++.+++++++.+++++++.",
"++.....++.....++                                                                                +++++++.+++++++.+++++++.",
"+++++++++.....++                                                                                +++++++.+++++++.+++++++.",
"+++++++++.....++                                                                                .+++++...+++++...+++++..",
"++............++                                                                                .+++++...+++++...+++++..",
"++.....++++...++                                                                                .+++++...+++++...+++++..",
"++.....+++....++                                                                                ..+++.....+++.....+++...",
"++.....++.+...++                                                                                ..+++.....+++.....+++...",
"++.....+.+++..++                                                                                ..+++.....+++.....+++...",
"++........+++.++                                                                                ...+.......+.......+....",
"++.........+..++                                                                                ...+.......+.......+....",
"++............++                                                                                ...+.......+.......+....",
"++++++++++++++++                                                                                ........................",
"++++++++++++++++                                                                                ++++++++++++++++++++++++",
"++++++++++++++++++++++++++......++++++++......++++++++++++++++++++++++++++++++++++++++++++++++++++++++++                ",
"++++++++++++++++++++++++++....................++++++++++++++++++++++++++++++++++++++++++++++++++++++++++                ",
"++....................++++....................++++....................++.+.+.+.+........................                ",
"++....................++++....................++++....................+++.+.+.+.........................                ",
"++....................++++....................++++....................++.+.+.+.+++++++++................                ",
"++....................++++....................++++....................+++.+.+.+.++++++++......+..+......                ",
"++....................++++....................++++....................++.+.+.+.+++++++++....+++..+++....                ",
"++....................++++....................++++....................+++.+.+.+.++++++++..+++++..+++++..                ",
"++....................++++....................++++....................++.+.+.+.++++++++++++++++..+++++++                ",
"++....................++++....................++++....................+++.+.+.+.++++++++..+++++..+++++..                ",
"++....................++++....................++++....................++.+.+.+.+++++++++....+++..+++....                ",
"++....................++++....................++++....................+++.+.+.+.++++++++......+..+......                ",
"++....................++++....................++++....................++.+.+.+.+........................                ",
"++....................++++....................++++....................+++.+.+.+.........................                ",
"++++++++++++++++++++++++++....................++++++++++++++++++++++++++++++++++++++++++++++++++++++++++                ",
"++++++++++++++++++++++++++......++++++++......++++++++++++++++++++++++++++++++++++++++++++++++++++++++++                ",
"++++++++++++++++++++++++++..++..++++++++..++..++++++++++++++++++++++++++++++++++++++++++++++++++++++++++                ",
"++++++++++++++++++++++++++..++............++..++++++++++++++++++++++++++++++++++++++++++++++++++++++++++                ",
"++....................++++..++............++..++++....................++.+.+.+.+........................                ",
"++....................++++..++............++..++++....................+++.+.+.+.........................                ",
"++....................++++..++............++..++++....................++.+.+.+.+++++++++................                ",
"++...+++++++++++++....++++..++............++..++++....................+++.+.+.+.++++++++......+..+......                ",
"++...+++++++++++++....++++..++............++..++++....++++++++++++....++.+.+.+.+++++++++....+++..+++....                ",
"++...++.........++....++++..++............++..++++....++++++++++++....+++.+.+.+.++++++++..+++++..+++++..                ",
"++...++.........++....++++..++............++..++++....++++++++++++....++.+.+.+.++++++++++++++++..+++++++                ",
"++...+++++++++++++....++++..++............++..++++....++++++++++++....+++.+.+.+.++++++++..+++++..+++++..                ",
"++...+++++++++++++....++++..++............++..++++....................++.+.+.+.+++++++++....+++..+++....                ",
"++....................++++..++............++..++++....................+++.+.+.+.++++++++......+..+......                ",
"++....................++++..++............++..++++....................++.+.+.+.+........................                ",
"++....................++++..++............++..++++....................+++.+.+.+.........................                ",
"++++++++++++++++++++++++++..++............++..++++++++++++++++++++++++++++++++++++++++++++++++++++++++++                ",
"++++++++++++++++++++++++++..++..++++++++..++..++++++++++++++++++++++++++++++++++++++++++++++++++++++++++                ",
"++++++++++++++++++++++++++..++..++++++++..++..++++++++++++++++++++++++++++++++++++++++++++++++++++++++++                ",
"++++++++++++++++++++++++++..++............++..++++++++++++++++++++++++++++++++++++++++++++++++++++++++++                ",
"++....................++++..++............++..++++....................++.+.+.+.+........................                ",
"++....................++++..++............++..++++....................+++.+.+.+.........................                ",
"++....................++++..++............++..++++....................++.+.+.+.+++++++++................                ",
"++...+++++++++++++....++++..++............++..++++....................+++.+.+.+.++++++++......+..+......                ",
"++...+++++++++++++....++++..++............++..++++....++++++++++++....++.+.+.+.+++++++++....+++..+++....                ",
"++...++.........++....++++..++............++..++++....++++++++++++....+++.+.+.+.++++++++..+++++..+++++..                ",
"++...++.........++....++++..++............++..++++....++++++++++++....++.+.+.+.++++++++++++++++..+++++++                ",
"++...+++++++++++++....++++..++............++..++++....++++++++++++....+++.+.+.+.++++++++..+++++..+++++..                ",
"++...+++++++++++++....++++..++............++..++++....................++.+.+.+.+++++++++....+++..+++....                ",
"++....................++++..++............++..++++....................+++.+.+.+.++++++++......+..+......                ",
"++....................++++..++............++..++++....................++.+.+.+.+........................                ",
"++....................++++..++............++..++++....................+++.+.+.+.........................                ",
"++++++++++++++++++++++++++..++............++..++++++++++++++++++++++++++++++++++++++++++++++++++++++++++                ",
"++++++++++++++++++++++++++..++..++++++++..++..++++++++++++++++++++++++++++++++++++++++++++++++++++++++++                "};
