/* XPM */
static char * mono_9x19_xpm[] = {
"135 133 3 1",
" 	c None",
".	c #000000",
"+	c #FFFFFF",
"         .........++++++++++++++++++++++++++++++++++++                                                      ++.+.+.++++.+.+.++++.+.+.++",
"         .........++++++++++++++++++++++++++++++++++++                                                      +.+.+.+.++.+.+.+.++.+.+.+.+",
"         .........++..............++++..............++                                                      ++.+.+.++++.+.+.++++.+.+.++",
"         .........++..............++++..............++                                                      +.+.+.+.++.+.+.+.++.+.+.+.+",
"         .........++..............++++......++......++                                                      ++.+.+.++++.+.+.++++.+.+.++",
"         .........++..............++++......++......++                                                      +.+.+.+.++.+.+.+.++.+.+.+.+",
"         .........++..............++++.....++++.....++                                                      ++.+.+.++++.+.+.++++.+.+.++",
"         .........++..............++++.....++++.....++                                                      +.+.+.+.++.+.+.+.++.+.+.+.+",
"         .........++...+++++++....++++....++++++....++                                                      ++.+.+.++++.+.+.++++.+.+.++",
"         .........++...++++++++...++++....++++++....++                                                      +.+.+.+.++.+.+.+.++.+.+.+.+",
"         .........++....+++++++...++++...++++++++...++                                                      ++.+.+.++++.+.+.++++.+.+.++",
"         .........++..............++++...++++++++...++                                                      +.+.+.+.++.+.+.+.++.+.+.+.+",
"         .........++..............++++..++++++++++..++                                                      ++.+.+.++++.+.+.++++.+.+.++",
"         .........++..............++++..++++++++++..++                                                      +.+.+.+.++.+.+.+.++.+.+.+.+",
"         .........++..............++++..............++                                                      ++.+.+.++++.+.+.++++.+.+.++",
"         .........++..............++++..............++                                                      +.+.+.+.++.+.+.+.++.+.+.+.+",
"         .........++..............++++..............++                                                      ++.+.+.++++.+.+.++++.+.+.++",
"         .........++++++++++++++++++++++++++++++++++++                                                      +.+.+.+.++.+.+.+.++.+.+.+.+",
"         .........++++++++++++++++++++++++++++++++++++                                                      ++.+.+.++++.+.+.++++.+.+.++",
"..................++++++++++++++++++++++++++++++++++++                                                      .+++++++..+++++++..+++++++.",
"..................++++++++++++++++++++++++++++++++++++                                                      .+++++++..+++++++..+++++++.",
"..................++..............++++..............++                                                      .+++++++..+++++++..+++++++.",
"..................++..............++++..............++                                                      .+++++++..+++++++..+++++++.",
"..................++..............++++......++......++                                                      .+++++++..+++++++..+++++++.",
"..................++..............++++......++......++                                                      .+++++++..+++++++..+++++++.",
"..................++..............++++.....++++.....++                                                      .+++++++..+++++++..+++++++.",
"..................++..............++++.....++++.....++                                                      .+++++++..+++++++..+++++++.",
"..................++...+++++++....++++....++++++....++                                                      .+++++++..+++++++..+++++++.",
"..................++...++++++++...++++....++++++....++                                                      .+++++++..+++++++..+++++++.",
"..................++....+++++++...++++...++++++++...++                                                      .+++++++..+++++++..+++++++.",
"..................++..............++++...++++++++...++                                                      .+++++++..+++++++..+++++++.",
"..................++..............++++..++++++++++..++                                                      .+++++++..+++++++..+++++++.",
"..................++..............++++..++++++++++..++                                                      .+++++++..+++++++..+++++++.",
"..................++..............++++..............++                                                      .+++++++..+++++++..+++++++.",
"..................++..............++++..............++                                                      .+++++++..+++++++..+++++++.",
"..................++..............++++..............++                                                      .+++++++..+++++++..+++++++.",
"..................++++++++++++++++++++++++++++++++++++                                                      .+++++++..+++++++..+++++++.",
"..................++++++++++++++++++++++++++++++++++++                                                      .+++++++..+++++++..+++++++.",
"++++++++++++++++++                                                                                          +++++++++++++++++++++++++++",
"++++++++++++++++++                                                                                          ...........................",
"++......++......++                                                                                          ...........................",
"++......++......++                                                                                          ...........................",
"++......++......++                                                                                          ...........................",
"++++++++++......++                                                                                          ....+........+........+....",
"++++++++++......++                                                                                          ....+........+........+....",
"++..............++                                                                                          ....+........+........+....",
"++.....+++++....++                                                                                          ...+++......+++......+++...",
"++.....++++.....++                                                                                          ...+++......+++......+++...",
"++.....+++......++                                                                                          ...+++......+++......+++...",
"++.....++.++....++                                                                                          ..+++++....+++++....+++++..",
"++.....+..+++...++                                                                                          ..+++++....+++++....+++++..",
"++.........+++..++                                                                                          ..+++++....+++++....+++++..",
"++..........+++.++                                                                                          .+++++++..+++++++..+++++++.",
"++...........+..++                                                                                          .+++++++..+++++++..+++++++.",
"++..............++                                                                                          .+++++++..+++++++..+++++++.",
"++++++++++++++++++                                                                                          ...........................",
"++++++++++++++++++                                                                                          ...........................",
"++++++++++++++++++                                                                                          ...........................",
"++++++++++++++++++                                                                                          ...........................",
"++......++......++                                                                                          ...........................",
"++......++......++                                                                                          .+++++++..+++++++..+++++++.",
"++......++......++                                                                                          .+++++++..+++++++..+++++++.",
"++++++++++......++                                                                                          .+++++++..+++++++..+++++++.",
"++++++++++......++                                                                                          ..+++++....+++++....+++++..",
"++..............++                                                                                          ..+++++....+++++....+++++..",
"++.....+++++....++                                                                                          ..+++++....+++++....+++++..",
"++.....++++.....++                                                                                          ...+++......+++......+++...",
"++.....+++......++                                                                                          ...+++......+++......+++...",
"++.....++.++....++                                                                                          ...+++......+++......+++...",
"++.....+..+++...++                                                                                          ....+........+........+....",
"++.........+++..++                                                                                          ....+........+........+....",
"++..........+++.++                                                                                          ....+........+........+....",
"++...........+..++                                                                                          ...........................",
"++..............++                                                                                          ...........................",
"++++++++++++++++++                                                                                          ...........................",
"++++++++++++++++++                                                                                          +++++++++++++++++++++++++++",
"+++++++++++++++++++++++++++++.......+++++++++.......+++++++++++++++++++++++++++++++++++++++++++++++++++++++++++++++++                  ",
"+++++++++++++++++++++++++++++.......................+++++++++++++++++++++++++++++++++++++++++++++++++++++++++++++++++                  ",
"++.......................++++.......................++++.......................+++.+.+.+.+...........................                  ",
"++.......................++++.......................++++.......................++.+.+.+.+............................                  ",
"++.......................++++.......................++++.......................+++.+.+.+.++++++++++..................                  ",
"++.......................++++.......................++++.......................++.+.+.+.+.+++++++++..................                  ",
"++.......................++++.......................++++.......................+++.+.+.+.++++++++++.......+..+.......                  ",
"++.......................++++.......................++++.......................++.+.+.+.+.+++++++++.....+++..+++.....                  ",
"++.......................++++.......................++++.......................+++.+.+.+.++++++++++...+++++..+++++...                  ",
"++.......................++++.......................++++.......................++.+.+.+.+.+++++++++.+++++++..+++++++.                  ",
"++.......................++++.......................++++.......................+++.+.+.+.++++++++++...+++++..+++++...                  ",
"++.......................++++.......................++++.......................++.+.+.+.+.+++++++++.....+++..+++.....                  ",
"++.......................++++.......................++++.......................+++.+.+.+.++++++++++.......+..+.......                  ",
"++.......................++++.......................++++.......................++.+.+.+.+.+++++++++..................                  ",
"++.......................++++.......................++++.......................+++.+.+.+.++++++++++..................                  ",
"++.......................++++.......................++++.......................++.+.+.+.+............................                  ",
"++.......................++++.......................++++.......................+++.+.+.+.+...........................                  ",
"+++++++++++++++++++++++++++++.......................+++++++++++++++++++++++++++++++++++++++++++++++++++++++++++++++++                  ",
"+++++++++++++++++++++++++++++.......+++++++++.......+++++++++++++++++++++++++++++++++++++++++++++++++++++++++++++++++                  ",
"+++++++++++++++++++++++++++++...+++.+++++++++.+++...+++++++++++++++++++++++++++++++++++++++++++++++++++++++++++++++++                  ",
"+++++++++++++++++++++++++++++...+++...........+++...+++++++++++++++++++++++++++++++++++++++++++++++++++++++++++++++++                  ",
"++.......................++++...+++...........+++...++++.......................+++.+.+.+.+...........................                  ",
"++.......................++++...+++...........+++...++++.......................++.+.+.+.+............................                  ",
"++.......................++++...+++...........+++...++++.......................+++.+.+.+.++++++++++..................                  ",
"++.......................++++...+++...........+++...++++.......................++.+.+.+.+.+++++++++..................                  ",
"++....+++++++++++++++....++++...+++...........+++...++++.......................+++.+.+.+.++++++++++.......+..+.......                  ",
"++....+++++++++++++++....++++...+++...........+++...++++....+++++++++++++++....++.+.+.+.+.+++++++++.....+++..+++.....                  ",
"++....++...........++....++++...+++...........+++...++++....+++++++++++++++....+++.+.+.+.++++++++++...+++++..+++++...                  ",
"++....++...........++....++++...+++...........+++...++++....+++++++++++++++....++.+.+.+.+.+++++++++.+++++++..+++++++.                  ",
"++....++...........++....++++...+++...........+++...++++....+++++++++++++++....+++.+.+.+.++++++++++...+++++..+++++...                  ",
"++....+++++++++++++++....++++...+++...........+++...++++....+++++++++++++++....++.+.+.+.+.+++++++++.....+++..+++.....                  ",
"++....+++++++++++++++....++++...+++...........+++...++++.......................+++.+.+.+.++++++++++.......+..+.......                  ",
"++.......................++++...+++...........+++...++++.......................++.+.+.+.+.+++++++++..................                  ",
"++.......................++++...+++...........+++...++++.......................+++.+.+.+.++++++++++..................                  ",
"++.......................++++...+++...........+++...++++.......................++.+.+.+.+............................                  ",
"++.......................++++...+++...........+++...++++.......................+++.+.+.+.+...........................                  ",
"+++++++++++++++++++++++++++++...+++...........+++...+++++++++++++++++++++++++++++++++++++++++++++++++++++++++++++++++                  ",
"+++++++++++++++++++++++++++++...+++.+++++++++.+++...+++++++++++++++++++++++++++++++++++++++++++++++++++++++++++++++++                  ",
"+++++++++++++++++++++++++++++...+++.+++++++++.+++...+++++++++++++++++++++++++++++++++++++++++++++++++++++++++++++++++                  ",
"+++++++++++++++++++++++++++++...+++...........+++...+++++++++++++++++++++++++++++++++++++++++++++++++++++++++++++++++                  ",
"++.......................++++...+++...........+++...++++.......................+++.+.+.+.+...........................                  ",
"++.......................++++...+++...........+++...++++.......................++.+.+.+.+............................                  ",
"++.......................++++...+++...........+++...++++.......................+++.+.+.+.++++++++++..................                  ",
"++.......................++++...+++...........+++...++++.......................++.+.+.+.+.+++++++++..................                  ",
"++....+++++++++++++++....++++...+++...........+++...++++.......................+++.+.+.+.++++++++++.......+..+.......                  ",
"++....+++++++++++++++....++++...+++...........+++...++++....+++++++++++++++....++.+.+.+.+.+++++++++.....+++..+++.....                  ",
"++....++...........++....++++...+++...........+++...++++....+++++++++++++++....+++.+.+.+.++++++++++...+++++..+++++...                  ",
"++....++...........++....++++...+++...........+++...++++....+++++++++++++++....++.+.+.+.+.+++++++++.+++++++..+++++++.                  ",
"++....++...........++....++++...+++...........+++...++++....+++++++++++++++....+++.+.+.+.++++++++++...+++++..+++++...                  ",
"++....+++++++++++++++....++++...+++...........+++...++++....+++++++++++++++....++.+.+.+.+.+++++++++.....+++..+++.....                  ",
"++....+++++++++++++++....++++...+++...........+++...++++.......................+++.+.+.+.++++++++++.......+..+.......                  ",
"++.......................++++...+++...........+++...++++.......................++.+.+.+.+.+++++++++..................                  ",
"++.......................++++...+++...........+++...++++.......................+++.+.+.+.++++++++++..................                  ",
"++.......................++++...+++...........+++...++++.......................++.+.+.+.+............................                  ",
"++.......................++++...+++...........+++...++++.......................+++.+.+.+.+...........................                  ",
"+++++++++++++++++++++++++++++...+++...........+++...+++++++++++++++++++++++++++++++++++++++++++++++++++++++++++++++++                  ",
"+++++++++++++++++++++++++++++...+++.+++++++++.+++...+++++++++++++++++++++++++++++++++++++++++++++++++++++++++++++++++                  "};
